<svg width="245" height="246" viewBox="0 0 245 246" fill="none" xmlns="http://www.w3.org/2000/svg">
<path d="M35.5624 78.4496L27.3958 75.0883C27.3958 75.0883 24.5756 81.9583 17.4052 79.1427C16.0124 78.6282 14.8147 77.6906 13.9792 76.461C13.1437 75.2313 12.7122 73.7709 12.7448 72.2835C12.7526 71.0338 13.0556 69.8037 13.6291 68.694C14.2026 67.5843 15.0302 66.6265 16.0441 65.8991C18.3634 64.1802 22.3433 63.1216 27.4448 66.3629L34.92 48.1482L26.8459 44.8196L22.4141 55.624C22.4141 55.624 9.89189 53.8942 4.76867 66.3956C-0.131332 78.3569 9.84289 85.7181 15.4126 88.0154C18.9242 89.4559 29.7968 92.9483 35.5624 78.4496Z" fill="#F5F5F5"/>
<path d="M31.4583 33.3176L28.3135 40.9838L36.5062 44.3598L39.651 36.6936L31.4583 33.3176Z" fill="#F5F5F5"/>
<path d="M32.7963 77.3146L24.6297 73.9533C24.6297 73.9533 21.8095 80.8179 14.6391 78.0076C13.2468 77.4925 12.0495 76.5548 11.2141 75.3253C10.3788 74.0957 9.94687 72.6357 9.97868 71.1485C9.98666 69.8982 10.2904 68.6677 10.8648 67.5578C11.4393 66.448 12.2682 65.4906 13.2835 64.7641C15.6028 63.0452 19.4901 62.2158 24.5916 65.4571L32.1593 47.0132L24.0907 43.6846L19.6589 54.489C19.6589 54.489 7.13668 52.7592 2.00257 65.2443C-2.89743 77.2055 6.66301 84.4084 11.2581 86.2801C14.748 87.7261 27.047 91.7914 32.7963 77.3146Z" fill="#E0E0E0"/>
<path d="M28.6966 32.1642L25.5518 39.8303L33.7444 43.2064L36.8893 35.5402L28.6966 32.1642Z" fill="#E0E0E0"/>
<path d="M228.693 218.443L223.635 218.863C223.635 218.863 223.989 223.12 219.579 223.567C218.731 223.667 217.872 223.5 217.121 223.09C216.371 222.679 215.767 222.045 215.393 221.275C215.068 220.634 214.899 219.926 214.899 219.207C214.899 218.488 215.068 217.78 215.393 217.139C216.133 215.649 217.897 214.061 221.354 214.378L220.423 203.082L215.414 203.502L215.959 210.198C215.959 210.198 209.093 212.604 209.736 220.353C210.351 227.769 217.391 228.92 220.842 228.631C223.047 228.467 229.532 227.376 228.693 218.443Z" fill="#F5F5F5"/>
<path d="M220.088 197.334L214.992 197.743L215.373 202.512L220.469 202.104L220.088 197.334Z" fill="#F5F5F5"/>
<path d="M226.978 218.574L221.914 219C221.914 219 222.268 223.256 217.858 223.698C217.011 223.801 216.152 223.636 215.402 223.226C214.653 222.816 214.05 222.182 213.677 221.412C213.352 220.771 213.183 220.062 213.183 219.343C213.183 218.625 213.352 217.916 213.677 217.275C214.417 215.786 216.192 214.34 219.666 214.656L218.719 203.197L213.715 203.617L214.26 210.313C214.26 210.313 207.394 212.713 208.037 220.468C208.652 227.883 215.43 229.057 218.267 228.816C220.455 228.658 227.816 227.518 226.978 218.574Z" fill="#E0E0E0"/>
<path d="M218.151 196.1L213.072 196.523L213.466 201.276L218.545 200.853L218.151 196.1Z" fill="#E0E0E0"/>
<path d="M199.298 34.4844L209.321 30.5174C209.321 30.5174 205.995 22.0812 214.684 18.4688C216.346 17.742 218.193 17.5533 219.968 17.9289C221.742 18.3045 223.355 19.2258 224.582 20.5642C225.629 21.669 226.4 23.006 226.834 24.4664C227.267 25.9268 227.35 27.4691 227.075 28.9676C226.482 32.4491 223.874 36.7599 216.649 38.2441L225.464 60.6169L235.378 56.6935L230.124 43.4172C230.124 43.4172 242.647 34.3153 236.581 18.9599C230.789 4.2703 215.784 6.26202 208.94 8.97403C204.639 10.6765 192.122 16.8318 199.298 34.4844Z" fill="#F5F5F5"/>
<path d="M237.336 61.3096L227.274 65.2922L230.984 74.707L241.046 70.7243L237.336 61.3096Z" fill="#F5F5F5"/>
<path d="M195.28 36.067L205.309 32.0999C205.309 32.0999 201.982 23.6637 210.672 20.0513C212.332 19.3226 214.178 19.1312 215.953 19.5039C217.727 19.8765 219.341 20.7947 220.57 22.1304C221.618 23.2376 222.39 24.5775 222.823 26.0407C223.257 27.5039 223.339 29.0491 223.063 30.5502C222.503 34.0316 219.78 38.0587 212.539 39.5429L221.468 62.194L231.377 58.2705L226.15 44.9997C226.15 44.9997 238.634 35.8978 232.58 20.5643C226.793 5.831 212.305 7.64265 206.676 9.86901C202.358 11.5715 188.126 18.4143 195.28 36.067Z" fill="#E0E0E0"/>
<path d="M233.339 62.8885L223.277 66.8711L226.987 76.2858L237.049 72.3032L233.339 62.8885Z" fill="#E0E0E0"/>
<path d="M118.001 22.7208C118.923 12.3013 111.226 3.1036 100.809 2.17731C90.3922 1.25103 81.1998 8.94687 80.2775 19.3665C79.3551 29.786 87.0521 38.9837 97.4691 39.91C107.886 40.8363 117.079 33.1404 118.001 22.7208Z" fill="white"/>
<path d="M111.3 35.5758L111.534 35.3794L112.198 34.7519L112.688 34.299C112.863 34.1298 113.037 33.9224 113.233 33.7042L113.859 33.0057C114.087 32.7331 114.302 32.449 114.501 32.1545C115.594 30.6778 116.453 29.0417 117.049 27.3034C117.864 25.005 118.225 22.5697 118.111 20.1332C118.111 19.7949 118.073 19.4511 118.057 19.1073C118.04 18.7635 117.953 18.4198 117.904 18.0651C117.855 17.7104 117.817 17.3612 117.725 17.0119C117.632 16.6627 117.545 16.308 117.458 15.9206L117.147 14.9111V14.851C117.022 14.4964 116.892 14.1362 116.766 13.7597C116.641 13.3832 116.44 13.0612 116.276 12.7065C116.118 12.344 115.936 11.9922 115.732 11.6534C115.334 10.948 114.891 10.2698 114.403 9.62346C114.153 9.30151 113.919 8.95774 113.647 8.64124L112.476 7.36981L112.351 7.24977L111.872 6.82414C111.545 6.54584 111.229 6.24572 110.892 5.97288C110.198 5.43587 109.47 4.94376 108.714 4.49955C107.934 4.04342 107.125 3.64052 106.291 3.29361C105.861 3.12445 105.42 2.99349 104.985 2.83524C104.767 2.76976 104.549 2.677 104.326 2.62243L103.607 2.55695C102.874 2.36945 102.128 2.23451 101.375 2.15315L100.237 2.01127L99.012 1.96216H98.6527L97.9231 2.00036L97.1936 2.04401L96.4695 2.14769L95.7399 2.26228L95.3751 2.31685L95.0158 2.40416L92.3426 3.21721L92.1575 3.2827C90.2675 4.05024 88.5036 5.09879 86.9253 6.39305C85.3756 7.724 84.0356 9.28226 82.9509 11.0149L82.8638 11.1677C82.5153 11.8607 81.9437 12.9903 81.5898 13.6833L81.4428 14.0216L81.323 14.3708L81.0835 15.1075L80.8493 15.806L80.686 16.5208L80.5172 17.2302L80.4356 17.5849L80.2722 18.8017L80.1688 19.9422C80.1143 20.6979 80.1143 21.4565 80.1688 22.2122L80.2069 22.9107C80.2069 23.1453 80.2722 23.3745 80.2995 23.6037C80.3757 24.0621 80.4301 24.5204 80.5227 24.9679C80.7139 25.854 80.9668 26.7255 81.2795 27.5762C81.5911 28.4078 81.9548 29.2188 82.3683 30.0045C82.5752 30.3865 82.8148 30.7466 83.0326 31.0958L83.3647 31.6415L83.4627 31.7834L84.5026 33.1585C84.7693 33.4859 85.047 33.7751 85.341 34.0807C85.8888 34.6663 86.4764 35.2133 87.0996 35.7177C87.3936 35.9895 87.7026 36.2446 88.0251 36.4817C88.3463 36.6999 88.6512 36.94 88.9779 37.1419L89.9688 37.7149L90.9488 38.2169L91.9506 38.6644C92.2797 38.8039 92.6159 38.926 92.9578 39.03C93.2899 39.1391 93.622 39.2592 93.9487 39.3574L94.9505 39.592C97.3245 40.1289 99.7799 40.1993 102.181 39.7994C103.993 39.5139 105.75 38.9508 107.391 38.1296C107.716 37.9854 108.032 37.8233 108.338 37.644L109.133 37.1529C109.378 37.0001 109.612 36.8636 109.814 36.7272L110.358 36.318L111.066 35.7723C111.229 35.6468 111.306 35.5758 111.306 35.5758L111.055 35.7559L110.331 36.3016C110.168 36.4162 109.993 36.5526 109.787 36.6945C109.58 36.8364 109.351 36.9619 109.106 37.1147L108.306 37.5949C107.996 37.7694 107.678 37.9278 107.353 38.0696C105.719 38.8587 103.975 39.3958 102.181 39.663C99.7955 40.0453 97.3593 39.9638 95.0049 39.4229L94.014 39.2046C93.6819 39.1064 93.3607 38.9863 93.0286 38.8772C92.6965 38.7681 92.3535 38.6698 92.0322 38.5116L91.0413 38.0641L90.1049 37.5839H90.0613L89.0868 37.0383C88.7601 36.8364 88.4607 36.5963 88.1449 36.378C87.8204 36.1609 87.5095 35.9239 87.2139 35.6686C86.5976 35.1642 86.0172 34.6172 85.4771 34.0316C85.2049 33.7315 84.9327 33.4423 84.6496 33.1203L83.6206 31.7507C83.5866 31.7074 83.5557 31.6618 83.528 31.6142L83.1959 31.0686C82.9836 30.703 82.744 30.3483 82.5426 29.9772C82.1423 29.2005 81.7932 28.3985 81.4972 27.5762C81.1823 26.7133 80.9294 25.8288 80.7405 24.9297C80.6479 24.4877 80.5989 24.0348 80.5227 23.5819C80.4955 23.3527 80.441 23.129 80.4301 22.8998L80.4029 22.2013C80.3431 21.2655 80.3431 20.3269 80.4029 19.3911C80.4682 18.9218 80.5336 18.4525 80.5935 17.9778L80.6425 17.6231L80.7241 17.2738L80.8875 16.5754L81.0562 15.866L81.2849 15.1785L81.519 14.4854L81.6388 14.1417L81.7858 13.8033L83.0652 11.2878L83.1469 11.1514C85.2654 7.67933 88.4583 4.99659 92.2391 3.51188L92.4133 3.4464L95.0648 2.64425L95.4187 2.55149L95.778 2.49692L96.5021 2.38779L97.2153 2.27865L97.9395 2.24045L98.6581 2.20226H99.0175H99.3713L100.792 2.25682C101.722 2.35294 102.644 2.51154 103.553 2.73156L104.228 2.88981C104.451 2.93892 104.663 3.03168 104.881 3.09717C105.311 3.24996 105.752 3.38092 106.171 3.54462C106.998 3.88789 107.8 4.28715 108.572 4.73965C109.33 5.17379 110.058 5.65873 110.75 6.19115C111.088 6.45853 111.398 6.73683 111.719 7.0315L112.198 7.45167L112.318 7.56626L113.478 8.82131C113.75 9.13235 113.984 9.47613 114.235 9.79262C114.718 10.4435 115.158 11.1253 115.552 11.8335C115.752 12.1709 115.934 12.5188 116.097 12.8757C116.255 13.2249 116.44 13.5632 116.581 13.9179L116.962 14.982C117.028 15.1566 117.093 15.3312 117.153 15.5277V15.5768C117.284 16.0952 117.414 16.6081 117.545 17.1101C117.643 17.4594 117.665 17.8141 117.73 18.1578C117.795 18.5016 117.839 18.8509 117.882 19.1892C117.926 19.5275 117.921 19.8713 117.937 20.2041C118.06 22.6215 117.715 25.0399 116.919 27.3252C116.336 29.0563 115.493 30.6884 114.42 32.1654C114.191 32.4655 114.017 32.7765 113.788 33.0221L113.178 33.6605C112.988 33.8788 112.819 34.0861 112.634 34.2608L112.155 34.7191L111.502 35.3358C111.371 35.4995 111.3 35.5758 111.3 35.5758Z" fill="#E0E0E0"/>
<path d="M115.28 46.031C114.964 46.4501 114.548 46.7819 114.07 46.9953C113.591 47.2086 113.067 47.2965 112.545 47.2507C112.023 47.2048 111.522 47.0268 111.088 46.7332C110.654 46.4397 110.301 46.0403 110.064 45.5727C109.802 45.0603 109.69 44.4845 109.74 43.9112C109.79 43.3379 110.001 42.7903 110.347 42.3313C110.845 41.6999 111.569 41.2884 112.366 41.1843C113.162 41.0802 113.968 41.2918 114.611 41.7741C115.254 42.2563 115.683 42.9712 115.808 43.7663C115.933 44.5614 115.744 45.374 115.28 46.031Z" fill="white"/>
<path d="M93.3384 17.9341H96.1913C96.1897 17.6073 96.2537 17.2835 96.3794 16.9819C96.5051 16.6803 96.69 16.4072 96.9231 16.1786C97.1562 15.9501 97.4328 15.7708 97.7364 15.6515C98.0399 15.5322 98.3643 15.4752 98.6903 15.484C99.1718 15.4665 99.6468 15.6001 100.049 15.8662C100.451 16.1323 100.76 16.5176 100.933 16.9682C101.084 17.3438 101.143 17.7496 101.107 18.1526C101.071 18.5556 100.941 18.9444 100.727 19.2874C100.242 20.0895 99.1803 20.8207 97.253 20.4824V26.9487H100.079V23.1289C101.24 22.7882 102.258 22.0744 102.975 21.0973C103.692 20.1202 104.069 18.934 104.048 17.7213C104.048 13.525 100.296 12.5537 98.6903 12.5537C97.4653 12.581 93.284 12.8757 93.3384 17.9341Z" fill="#E0E0E0"/>
<path d="M100.117 28.2802H97.248V30.9703H100.117V28.2802Z" fill="#E0E0E0"/>
<path d="M60.5142 98.9452H63.378C63.3764 98.6184 63.4404 98.2946 63.5661 97.993C63.6918 97.6915 63.8767 97.4183 64.1098 97.1898C64.3429 96.9612 64.6195 96.782 64.923 96.6626C65.2266 96.5433 65.551 96.4863 65.877 96.4951C66.357 96.4784 66.8302 96.6117 67.2312 96.8767C67.6321 97.1417 67.9409 97.5251 68.1146 97.9739C68.2673 98.3496 68.3286 98.7564 68.2936 99.1605C68.2586 99.5647 68.1282 99.9548 67.9132 100.298C67.4286 101.101 66.3615 101.832 64.4342 101.488V107.954H67.2653V104.167C68.4268 103.827 69.4444 103.113 70.1615 102.136C70.8787 101.159 71.2556 99.9725 71.2343 98.7597C71.2343 94.5634 67.4831 93.5867 65.877 93.5867C64.6465 93.5867 60.4598 93.8868 60.5142 98.9452Z" fill="#E0E0E0"/>
<path d="M67.2979 109.291H64.4287V111.981H67.2979V109.291Z" fill="#E0E0E0"/>
<path d="M188.904 119.927L185.698 117.886C185.698 117.886 183.983 120.614 181.152 118.852C180.597 118.528 180.157 118.038 179.894 117.451C179.631 116.863 179.559 116.208 179.687 115.578C179.784 115.048 180.004 114.548 180.331 114.12C180.657 113.693 181.08 113.349 181.565 113.117C182.681 112.571 184.396 112.505 186.318 114.262L190.913 107.005L187.739 104.98L185.044 109.237C185.044 109.237 179.861 107.556 176.742 112.473C173.758 117.182 177.286 120.952 179.083 122.104C180.46 122.993 185.371 125.645 188.904 119.927Z" fill="#E0E0E0"/>
<path d="M40.8204 215.379L38.9374 214.167C38.9374 214.167 37.9304 215.788 36.268 214.741C35.9421 214.548 35.6839 214.257 35.5296 213.908C35.3754 213.559 35.3328 213.17 35.4081 212.796C35.4648 212.481 35.5943 212.184 35.786 211.93C35.9778 211.676 36.2262 211.471 36.511 211.333C37.1663 211.009 38.1734 210.97 39.3019 212.014L42 207.703L40.1362 206.5L38.5538 209.029C38.5538 209.029 35.5104 208.03 33.6786 210.951C31.9267 213.749 33.9983 215.989 35.0532 216.673C35.862 217.201 38.7456 218.777 40.8204 215.379Z" fill="#E0E0E0"/>
<path d="M190.566 100.466L188.654 103.483L191.876 105.534L193.788 102.517L190.566 100.466Z" fill="#E0E0E0"/>
<path d="M42.2433 203.5L41.0811 205.334L43.0395 206.581L44.2018 204.747L42.2433 203.5Z" fill="#E0E0E0"/>
<path d="M61.7332 19.1345L59.0708 20.1877C59.1936 20.4905 59.2541 20.815 59.2487 21.1419C59.2433 21.4687 59.1721 21.7911 59.0394 22.0896C58.9067 22.3882 58.7153 22.6569 58.4765 22.8795C58.2377 23.1022 57.9566 23.2742 57.6498 23.3853C57.2095 23.5806 56.7192 23.633 56.2477 23.5352C55.7762 23.4373 55.347 23.1941 55.0202 22.8397C54.7418 22.5466 54.5369 22.1914 54.4224 21.8033C54.3078 21.4153 54.2869 21.0056 54.3614 20.6078C54.5193 19.6802 55.238 18.6107 57.1598 18.2178L54.7861 12.2153L52.1564 13.2576L53.5447 16.7444C52.5895 17.4897 51.9048 18.5288 51.596 19.7019C51.2871 20.875 51.3712 22.1174 51.8352 23.238C53.3705 27.1396 57.2197 26.6649 58.7115 26.0755C59.8548 25.639 63.6387 23.8382 61.7332 19.1345Z" fill="#E0E0E0"/>
<path d="M53.3715 8.28193L50.7031 9.34595L51.6962 11.8478L54.3646 10.7838L53.3715 8.28193Z" fill="#E0E0E0"/>
<path d="M244.374 243.451C244.374 243.528 190.473 243.593 123.964 243.593C57.4548 243.593 3.54395 243.528 3.54395 243.451C3.54395 243.375 57.4439 243.31 123.964 243.31C190.484 243.31 244.374 243.37 244.374 243.451Z" fill="#263238"/>
<path d="M205.625 147.249L201.438 145.371L226.369 113.908L230.436 115.037C231.043 115.205 231.586 115.553 231.993 116.036L236.043 120.816C236.323 121.146 236.46 121.574 236.425 122.006C236.391 122.437 236.187 122.837 235.858 123.119L207.874 146.927C207.568 147.188 207.194 147.357 206.796 147.414C206.398 147.471 205.992 147.414 205.625 147.249Z" fill="#455A64"/>
<path d="M233.898 145.033L229.368 148.853C229.121 149.065 228.821 149.207 228.501 149.264C228.18 149.322 227.85 149.293 227.544 149.18L224.136 147.963C223.712 147.805 223.359 147.496 223.145 147.096L204.602 112.058L208.783 113.275C209.322 113.432 209.803 113.745 210.166 114.175L234.094 142.43C234.411 142.802 234.569 143.284 234.532 143.772C234.496 144.26 234.268 144.713 233.898 145.033Z" fill="#455A64"/>
<g opacity="0.3">
<path d="M205.624 147.249L201.438 145.371L226.368 113.908L230.435 115.037C231.042 115.205 231.585 115.553 231.992 116.036L236.042 120.816C236.322 121.146 236.459 121.574 236.424 122.006C236.39 122.437 236.186 122.837 235.857 123.119L207.873 146.927C207.567 147.188 207.193 147.357 206.795 147.414C206.397 147.471 205.991 147.414 205.624 147.249Z" fill="black"/>
<path d="M233.897 145.033L229.367 148.853C229.12 149.065 228.82 149.207 228.5 149.264C228.179 149.322 227.849 149.293 227.543 149.18L224.135 147.963C223.711 147.805 223.358 147.496 223.144 147.096L204.601 112.058L208.782 113.275C209.321 113.432 209.802 113.745 210.165 114.175L234.093 142.43C234.411 142.802 234.568 143.284 234.531 143.772C234.495 144.26 234.267 144.713 233.897 145.033Z" fill="black"/>
</g>
<path d="M231.19 119.252L227.075 114.393C226.63 113.867 225.843 113.802 225.318 114.249L196.966 138.364C196.441 138.811 196.377 139.599 196.822 140.125L200.937 144.985C201.382 145.511 202.169 145.576 202.694 145.129L231.046 121.013C231.571 120.567 231.636 119.778 231.19 119.252Z" fill="#455A64"/>
<path d="M198.77 116.615L203.751 112.378C203.971 112.191 204.257 112.099 204.545 112.122C204.832 112.146 205.099 112.283 205.286 112.504L229.467 141.061C229.681 141.314 229.786 141.642 229.759 141.972C229.732 142.302 229.575 142.608 229.323 142.823L224.462 146.957C224.21 147.172 223.883 147.277 223.554 147.25C223.224 147.223 222.919 147.066 222.705 146.813L198.644 118.397C198.43 118.144 198.325 117.817 198.352 117.486C198.379 117.156 198.535 116.85 198.788 116.636L198.77 116.615Z" fill="#455A64"/>
<path d="M206.714 131.473C205.404 132.783 204.029 134.025 202.593 135.195C201.218 136.437 199.781 137.608 198.286 138.703C199.596 137.392 200.972 136.148 202.408 134.976C203.783 133.736 205.22 132.567 206.714 131.473Z" fill="white"/>
<path d="M225.492 115.381C225.546 115.441 223.467 117.285 220.859 119.501C218.251 121.716 216.095 123.457 216.046 123.397C215.997 123.337 218.066 121.498 220.679 119.283C223.292 117.067 225.443 115.321 225.492 115.381Z" fill="white"/>
<path d="M207.645 126.971C207.585 127.02 205.979 125.061 204.057 122.606C202.135 120.15 200.627 118.109 200.687 118.06C201.958 119.453 203.158 120.91 204.281 122.426C205.48 123.881 206.603 125.399 207.645 126.971Z" fill="white"/>
<path d="M221.996 143.341C220.69 142.137 219.451 140.861 218.283 139.522C217.044 138.246 215.875 136.904 214.782 135.5C216.084 136.709 217.323 137.984 218.495 139.32C219.732 140.598 220.901 141.94 221.996 143.341Z" fill="white"/>
<path d="M7.95942 141.317L7.09375 138.087L30.4341 142.747L51.0522 113.69L53.5675 118.382C53.7605 118.739 53.8616 119.139 53.8616 119.545C53.8616 119.951 53.7605 120.35 53.5675 120.707L35.6662 153.551C35.3475 154.135 34.9156 154.648 34.3959 155.062C33.8762 155.476 33.2792 155.781 32.64 155.96C32.0007 156.139 31.3323 156.188 30.6739 156.104C30.0155 156.021 29.3805 155.806 28.8062 155.472L10.7415 144.979C10.0603 144.582 9.46384 144.054 8.98643 143.426C8.50902 142.797 8.16001 142.081 7.95942 141.317Z" fill="#FA913B"/>
<g opacity="0.3">
<path d="M7.96039 141.317L7.09473 138.087L30.4351 142.747L51.0532 113.689L53.5685 118.382C53.7615 118.739 53.8626 119.139 53.8626 119.545C53.8626 119.95 53.7615 120.35 53.5685 120.707L35.6672 153.551C35.3485 154.135 34.9166 154.648 34.3969 155.062C33.8772 155.476 33.2802 155.781 32.6409 155.96C32.0017 156.139 31.3332 156.188 30.6748 156.104C30.0164 156.02 29.3814 155.805 28.8072 155.472L10.7425 144.979C10.0612 144.582 9.46481 144.054 8.9874 143.426C8.50999 142.797 8.16099 142.081 7.96039 141.317Z" fill="black"/>
</g>
<path d="M7.15905 136.548L10.5237 130.578C10.755 130.166 11.135 129.858 11.5856 129.718C12.0362 129.578 12.5231 129.617 12.9465 129.825L26.4487 136.455C26.8806 136.666 27.3771 136.7 27.834 136.552C28.2908 136.403 28.6725 136.083 28.8987 135.658L42.2921 110.47C42.4108 110.246 42.5739 110.05 42.7714 109.892C42.9688 109.734 43.1965 109.618 43.4403 109.551C43.6841 109.485 43.9389 109.469 44.189 109.505C44.4391 109.541 44.6792 109.628 44.8945 109.761L50.3389 113.117C50.7429 113.365 51.0364 113.759 51.159 114.218C51.2816 114.677 51.2238 115.165 50.9977 115.583L33.4884 147.674C32.9227 148.712 31.9717 149.485 30.8416 149.825C29.7114 150.165 28.4931 150.045 27.4505 149.491L7.8995 139.123C7.6782 139.007 7.4827 138.847 7.32477 138.653C7.16684 138.459 7.04976 138.235 6.98057 137.994C6.91138 137.753 6.89153 137.501 6.9222 137.253C6.95288 137.004 7.03345 136.764 7.15905 136.548Z" fill="#FA913B"/>
<path d="M25.5285 137.983C25.2788 137.909 25.0364 137.812 24.8044 137.694L22.8825 136.821C21.2492 136.068 19.0387 135.014 16.5887 133.836L14.7975 132.974L13.9482 132.564C13.6977 132.426 13.4216 132.341 13.1369 132.313C12.8752 132.291 12.6116 132.321 12.3619 132.402C12.1121 132.484 11.8813 132.615 11.6833 132.788C11.3547 133.129 11.0876 133.524 10.8938 133.956L9.84305 135.795C9.72366 136.026 9.58332 136.245 9.42383 136.45C9.50815 136.203 9.61571 135.966 9.74505 135.74L10.7142 133.858L11.0408 133.236C11.1646 133 11.3286 132.787 11.5254 132.608C11.7472 132.412 12.0061 132.263 12.2867 132.169C12.5673 132.075 12.8639 132.039 13.1587 132.062C13.4768 132.088 13.7863 132.179 14.0679 132.33L14.9173 132.734L16.703 133.579C19.153 134.758 21.3689 135.844 22.9642 136.641L24.8697 137.596C25.0993 137.707 25.3196 137.836 25.5285 137.983Z" fill="white"/>
<path d="M30.4779 136.897C30.4071 136.859 33.2436 131.238 36.8152 124.347C40.3867 117.455 43.3485 111.889 43.403 111.927C43.4574 111.965 40.6372 117.58 37.0656 124.478C33.4941 131.375 30.5432 136.93 30.4779 136.897Z" fill="white"/>
<path d="M86.7182 61.8261C87.9627 51.7833 80.8487 42.6308 70.8286 41.3834C60.8084 40.1361 51.6766 47.2662 50.4321 57.3091C49.1876 67.3519 56.3016 76.5043 66.3218 77.7517C76.3419 78.999 85.4737 71.8689 86.7182 61.8261Z" fill="white"/>
<path d="M86.855 59.5584C86.855 59.5584 86.855 59.4601 86.855 59.2637C86.855 59.0672 86.8549 58.7671 86.8223 58.3906L86.7951 57.7467C86.7951 57.5121 86.7297 57.2556 86.6916 56.9773C86.6535 56.699 86.6045 56.3989 86.561 56.0824C86.5174 55.7659 86.4085 55.433 86.3323 55.0784C85.9202 53.3478 85.2444 51.6914 84.3287 50.1673C83.1342 48.1359 81.5568 46.3567 79.6846 44.9288L78.8952 44.334C78.6175 44.1484 78.3235 43.9793 78.035 43.7883C77.7464 43.5973 77.4578 43.4118 77.1421 43.2426L76.1893 42.7788L75.7047 42.5496L75.1929 42.3641L74.1639 41.9821C73.8101 41.8621 73.4453 41.7857 73.0751 41.6874C72.7167 41.5834 72.3533 41.4978 71.9862 41.431C71.2183 41.2871 70.4416 41.1959 69.6614 41.1581C69.264 41.1581 68.8665 41.1036 68.4636 41.109L67.2495 41.1691C67.0426 41.1691 66.8357 41.1691 66.6343 41.2072L66.0191 41.3C65.6107 41.3655 65.1969 41.4146 64.7832 41.5019C63.9516 41.6856 63.1332 41.9244 62.3332 42.2167C61.5092 42.511 60.7069 42.8629 59.9322 43.2699C59.5456 43.4773 59.1699 43.7228 58.7834 43.952C58.5983 44.0721 58.3968 44.1757 58.2389 44.3121L57.6945 44.716C56.9621 45.2616 56.2656 45.854 55.6093 46.4894L54.6728 47.5207L54.4387 47.7827L54.2264 48.0609L53.8072 48.6066L53.3825 49.1523L53.0123 49.758L52.6421 50.3637L52.4569 50.6747L52.2991 50.9967C52.0922 51.4278 51.8798 51.8589 51.673 52.2954C51.4661 52.7319 51.3408 53.2012 51.1721 53.6596C49.9088 57.4342 49.9088 61.5188 51.1721 65.2934C51.3408 65.7518 51.5042 66.2047 51.673 66.6576L52.2936 67.9618L52.4515 68.2837L52.6366 68.5893L53.0068 69.2005L53.3825 69.8062L53.8017 70.3518L54.2264 70.8975L54.4387 71.1813L54.6728 71.4377L55.6093 72.4691C56.2642 73.1061 56.9608 73.6986 57.6945 74.2425L58.2389 74.6518C58.4186 74.7882 58.6201 74.8919 58.7834 75.0119C59.1699 75.2357 59.5402 75.4812 59.9322 75.694C60.7069 76.101 61.5092 76.453 62.3332 76.7472C63.1332 77.0395 63.9516 77.2783 64.7832 77.462C65.1969 77.5493 65.6107 77.593 66.0191 77.6639L66.6343 77.7567C66.8412 77.784 67.0426 77.7567 67.2495 77.7949L68.4636 77.8549C68.8665 77.8549 69.2694 77.8222 69.6614 77.8058C70.4416 77.768 71.2183 77.6768 71.9862 77.533C72.3534 77.4667 72.7168 77.3811 73.0751 77.2765C73.4398 77.1728 73.8046 77.0964 74.1639 76.9818L75.1929 76.5998L75.7047 76.4143L76.1893 76.1797L77.1421 75.7213C77.4578 75.574 77.7409 75.3666 78.035 75.1756C78.3289 74.9846 78.6175 74.8264 78.8952 74.63L79.6901 74.0352C81.5594 72.6057 83.1346 70.8267 84.3287 68.7967C85.2435 67.2721 85.9192 65.6158 86.3323 63.8856C86.4256 63.555 86.502 63.2199 86.561 62.8815C86.6045 62.5596 86.6535 62.2595 86.6916 61.9812C86.7297 61.7029 86.7733 61.4355 86.7951 61.2118C86.8168 60.988 86.7951 60.7643 86.8223 60.5733C86.8223 60.1913 86.8495 59.9021 86.855 59.7002C86.8604 59.4983 86.855 59.4001 86.855 59.4001C86.855 59.4001 86.855 59.5038 86.855 59.7002C86.855 59.8967 86.8277 60.1913 86.8005 60.5679C86.8005 60.7588 86.8005 60.9717 86.7624 61.2118C86.7243 61.4519 86.6916 61.6974 86.6481 61.9757C86.6045 62.254 86.5555 62.5214 86.5065 62.8652C86.4468 63.2026 86.3668 63.536 86.267 63.8638C85.8428 65.5774 85.1617 67.2167 84.2471 68.7257C83.0568 70.7868 81.4732 72.5928 79.5866 74.0406L78.8026 74.63C78.525 74.81 78.231 74.9792 77.9478 75.1756C77.6647 75.3721 77.3707 75.5467 77.055 75.694L76.1131 76.1469L75.634 76.3761L75.1276 76.5616L74.1041 76.9327C73.7556 77.0473 73.3908 77.1237 73.0152 77.2219C72.6568 77.3245 72.2934 77.4083 71.9263 77.4729C71.1653 77.6126 70.396 77.7019 69.6233 77.7403C69.2313 77.7403 68.8393 77.7894 68.4364 77.784L67.2332 77.7185C67.0317 77.7185 66.8303 77.7185 66.6288 77.6803L66.0191 77.5875C65.6162 77.522 65.2024 77.4729 64.7995 77.3911C63.9749 77.208 63.1637 76.9692 62.3713 76.6762C61.5595 76.3823 60.7683 76.0341 60.0029 75.634C59.6164 75.4212 59.2516 75.1811 58.8705 74.9519C58.6854 74.8319 58.4839 74.7336 58.3261 74.5972L57.7816 74.1934C57.0552 73.6549 56.3658 73.0679 55.7182 72.4363L54.8144 71.4214L54.5803 71.1649L54.3734 70.8866L53.9542 70.3409L53.535 69.7953L53.1702 69.195L52.8054 68.5893L52.6203 68.2892L52.4678 67.9672L51.8472 66.6849L51.3572 65.3316C50.1085 61.6032 50.1085 57.5681 51.3572 53.8397L51.8526 52.4864C52.0595 52.0608 52.261 51.6297 52.4678 51.204L52.6257 50.8876L52.8054 50.582L53.1702 49.9817L53.5404 49.3815L53.9542 48.8358L54.3734 48.2901L54.5803 48.0118L54.8144 47.7554L55.7399 46.735C56.3871 46.105 57.0746 45.5181 57.7979 44.9779L58.3424 44.5795C58.5166 44.4431 58.7181 44.3394 58.8868 44.2194C59.2679 43.9957 59.6327 43.7501 60.0193 43.5427C60.7846 43.1427 61.5758 42.7945 62.3876 42.5005C63.18 42.2075 63.9913 41.9687 64.8158 41.7857C65.2187 41.7038 65.6325 41.6547 66.0354 41.5892L66.6452 41.4965C66.8466 41.4692 67.0481 41.4692 67.2495 41.4528L68.4527 41.3928C68.8556 41.3928 69.2476 41.4255 69.6396 41.4364C70.4123 41.4751 71.1816 41.5644 71.9426 41.7038C72.3102 41.7659 72.6738 41.8497 73.0315 41.9548C73.3908 42.053 73.7556 42.1294 74.1204 42.244L75.144 42.6151L75.6448 42.8006L76.1294 43.0298L77.0713 43.4827C77.3871 43.6246 77.6647 43.832 77.9587 43.9957C78.2527 44.1594 78.5413 44.3394 78.819 44.5413L79.603 45.1252C81.4636 46.5385 83.0365 48.2964 84.2362 50.3037C85.15 51.8131 85.8309 53.4523 86.2561 55.1657C86.3547 55.4937 86.4347 55.8271 86.4956 56.1642C86.5446 56.4862 86.5936 56.7809 86.6372 57.0592C86.6807 57.3375 86.7297 57.6048 86.7515 57.8231C86.7733 58.0414 86.7787 58.2706 86.7896 58.467C86.8168 58.8435 86.8332 59.1327 86.8441 59.3346C86.855 59.5365 86.855 59.5584 86.855 59.5584Z" fill="#263238"/>
<path d="M93.8076 71.0775C93.8076 71.6668 93.6333 72.2428 93.3067 72.7328C92.98 73.2228 92.5157 73.6046 91.9726 73.8301C91.4294 74.0556 90.8317 74.1147 90.255 73.9997C89.6784 73.8847 89.1487 73.601 88.733 73.1843C88.3172 72.7676 88.0341 72.2367 87.9194 71.6588C87.8047 71.0808 87.8636 70.4818 88.0886 69.9374C88.3136 69.393 88.6946 68.9277 89.1834 68.6003C89.6723 68.2729 90.247 68.0981 90.835 68.0981C91.2256 68.0974 91.6124 68.174 91.9734 68.3235C92.3344 68.473 92.6624 68.6924 92.9386 68.9692C93.2147 69.246 93.4337 69.5747 93.5828 69.9365C93.732 70.2983 93.8084 70.6861 93.8076 71.0775Z" fill="white"/>
<path d="M62.5615 61.0043V63.498H60.6015V60.977L57.9609 56.5789H60.0244L61.6577 59.34L63.2911 56.5789H65.1912L62.5615 61.0043Z" fill="#263238"/>
<path d="M71.2347 61.9811V63.498H65.7031V56.5789H71.1476V58.1013H67.6577V59.269H70.7338V60.7369H67.6577V62.0083L71.2347 61.9811Z" fill="#263238"/>
<path d="M71.834 62.8705L72.4764 61.4245C73.1615 61.8583 73.9528 62.0944 74.7631 62.1066C75.5743 62.1066 75.8901 61.8774 75.8901 61.5609C75.8901 60.4695 71.9538 61.2608 71.9538 58.6852C71.9538 57.441 72.9664 56.4315 75.0244 56.4315C75.8988 56.4168 76.7625 56.6252 77.5343 57.0372L76.93 58.4942C76.3457 58.1569 75.6874 57.9695 75.0135 57.9485C74.1914 57.9485 73.892 58.2268 73.892 58.5706C73.892 59.6619 77.8229 58.8379 77.8229 61.3972C77.8229 62.6086 76.8102 63.6399 74.7522 63.6399C73.7266 63.6641 72.715 63.3974 71.834 62.8705Z" fill="#263238"/>
<path d="M188.18 90.5926C198.936 89.2211 206.546 79.3701 205.178 68.5896C203.81 57.8091 193.981 50.1816 183.225 51.553C172.469 52.9245 164.858 62.7756 166.227 73.556C167.595 84.3365 177.424 91.964 188.18 90.5926Z" fill="white"/>
<path d="M166.066 71.0884C166.066 71.0884 166.066 70.9793 166.066 70.7664C166.066 70.5536 166.066 70.2208 166.104 69.8333L166.132 69.1403C166.132 68.8893 166.202 68.5946 166.246 68.3164C166.29 68.0381 166.333 67.6943 166.388 67.3505C166.447 66.9821 166.529 66.6176 166.633 66.2592C167.077 64.4042 167.802 62.6283 168.783 60.9934C170.067 58.814 171.758 56.9036 173.765 55.3674L174.614 54.729C174.914 54.5326 175.229 54.3525 175.54 54.1833C175.85 54.0142 176.16 53.7795 176.503 53.6377L177.521 53.1465L178.066 52.8955L178.61 52.6936L179.699 52.2844C180.075 52.1589 180.472 52.077 180.859 51.9679C181.251 51.8551 181.649 51.764 182.051 51.695C182.875 51.5412 183.708 51.4428 184.545 51.4004C184.975 51.4004 185.4 51.3404 185.835 51.3458L187.142 51.4113C187.36 51.4113 187.577 51.4113 187.801 51.4549L188.459 51.5532C188.895 51.6241 189.341 51.6787 189.788 51.766C190.679 51.9679 191.558 52.2249 192.417 52.5354C193.302 52.8523 194.162 53.2316 194.993 53.6704C195.412 53.8941 195.815 54.156 196.223 54.4016C196.43 54.5326 196.642 54.6417 196.838 54.789L197.415 55.2256C198.205 55.8088 198.955 56.4451 199.659 57.13L200.666 58.2213L200.916 58.4996L201.145 58.7998L201.597 59.4055L202.049 60.0112L202.452 60.666L202.849 61.3208L203.045 61.6482L203.214 61.992C203.437 62.4558 203.66 62.9251 203.889 63.3889C204.118 63.8527 204.243 64.3657 204.433 64.8568C205.798 68.908 205.798 73.2961 204.433 77.3473C204.254 77.8384 204.079 78.3295 203.889 78.8152L203.219 80.2121L203.05 80.5559L202.849 80.8833L202.452 81.5436L202.054 82.1929L201.597 82.7986L201.145 83.4098L200.916 83.7099L200.666 83.9882L199.659 85.0795C198.954 85.7616 198.207 86.3977 197.421 86.984L196.838 87.4205C196.642 87.5624 196.43 87.677 196.229 87.8025C195.815 88.048 195.412 88.3154 194.998 88.5391C194.164 88.9729 193.302 89.3503 192.417 89.6687C191.558 89.9849 190.677 90.242 189.782 90.4381C189.341 90.5309 188.895 90.58 188.454 90.6509L187.801 90.7546C187.577 90.7819 187.36 90.7819 187.136 90.7928L185.835 90.8583C185.4 90.8583 184.969 90.8201 184.545 90.8092C183.708 90.7653 182.875 90.665 182.051 90.509C181.648 90.4433 181.25 90.3522 180.859 90.2362C180.467 90.1271 180.075 90.0452 179.699 89.9197L178.61 89.5104L178.066 89.314L177.521 89.063L176.498 88.5664C176.16 88.4082 175.855 88.1899 175.54 88.0207C175.224 87.8516 174.914 87.6497 174.614 87.4478L173.765 86.8093C171.755 85.2747 170.062 83.3641 168.778 81.1834C167.799 79.5481 167.075 77.7723 166.633 75.9176C166.528 75.5594 166.446 75.1949 166.388 74.8263C166.333 74.4825 166.29 74.1606 166.246 73.8659C166.202 73.5712 166.153 73.3202 166.132 73.0365C166.11 72.7527 166.132 72.5563 166.104 72.3489C166.104 71.9396 166.077 71.6286 166.066 71.4103C166.055 71.1921 166.066 71.0939 166.066 71.0939C166.066 71.0939 166.066 71.203 166.094 71.4103C166.121 71.6177 166.132 71.956 166.153 72.3435C166.153 72.5508 166.181 72.78 166.197 73.031C166.213 73.282 166.273 73.5767 166.317 73.855C166.36 74.1333 166.415 74.4716 166.469 74.8099C166.524 75.1482 166.638 75.5084 166.725 75.9013C167.186 77.7416 167.92 79.502 168.903 81.1234C170.19 83.2796 171.88 85.1674 173.879 86.6838L174.723 87.3114C175.017 87.5078 175.333 87.6879 175.643 87.857C175.951 88.0549 176.269 88.237 176.596 88.4027L177.609 88.8884L178.153 89.1339L178.697 89.3358L179.786 89.7342C180.162 89.8597 180.554 89.9415 180.941 90.0452C181.329 90.1574 181.723 90.2467 182.122 90.3126C182.937 90.4649 183.761 90.5615 184.588 90.6018C185.013 90.6018 185.438 90.6564 185.862 90.6509L187.158 90.58C187.37 90.58 187.594 90.58 187.806 90.5418L188.459 90.4381C188.895 90.3672 189.336 90.318 189.771 90.2253C190.657 90.0284 191.528 89.7732 192.379 89.4613C193.252 89.1457 194.101 88.7701 194.922 88.3372C195.336 88.1135 195.733 87.8516 196.141 87.6115C196.337 87.4805 196.555 87.3714 196.74 87.2295L197.317 86.7984C198.096 86.2176 198.836 85.5869 199.533 84.9104L200.524 83.819L200.775 83.5462L200.998 83.2461L201.444 82.6458L201.896 82.0456L202.288 81.4017L202.68 80.7523L202.876 80.4304L203.045 80.0866C203.263 79.6282 203.486 79.1699 203.704 78.706C203.922 78.2422 204.058 77.7402 204.248 77.26C204.887 75.2625 205.225 73.1805 205.25 71.0829C205.226 68.9867 204.886 66.9061 204.243 64.9113L203.698 63.4653C203.475 63.0015 203.257 62.5431 203.034 62.0847L202.871 61.741L202.675 61.419L202.277 60.7696L201.885 60.1257L201.439 59.5255L200.992 58.9253L200.769 58.6306L200.519 58.3523L199.528 57.2609C198.831 56.5862 198.09 55.9573 197.312 55.3784L196.735 54.9473C196.544 54.7999 196.332 54.6908 196.136 54.5653C195.728 54.3197 195.33 54.0633 194.916 53.8341C193.288 52.9864 191.557 52.3536 189.766 51.9515C189.33 51.8587 188.889 51.8096 188.454 51.7332L187.806 51.635C187.588 51.6077 187.37 51.6077 187.153 51.5914L185.857 51.5259C185.432 51.5259 185.008 51.5586 184.588 51.575C183.759 51.6122 182.933 51.7089 182.117 51.8642C181.717 51.9255 181.322 52.0148 180.935 52.1316C180.549 52.2353 180.157 52.3171 179.781 52.4372L178.692 52.841L178.148 53.0374L177.603 53.283L176.59 53.7686C176.253 53.9269 175.953 54.1451 175.638 54.3143C175.322 54.4834 175.017 54.6799 174.718 54.86L173.874 55.493C171.875 57.0098 170.185 58.8975 168.897 61.0534C167.915 62.6734 167.181 64.4318 166.72 66.2701C166.633 66.652 166.507 67.0013 166.464 67.3614C166.42 67.7216 166.36 68.0217 166.311 68.3218C166.262 68.6219 166.219 68.8675 166.192 69.1403C166.164 69.4132 166.159 69.626 166.148 69.8279L166.088 70.761C166.083 70.9793 166.066 71.0884 166.066 71.0884Z" fill="#263238"/>
<path d="M158.602 83.4535C158.6 84.0875 158.787 84.7076 159.138 85.2351C159.489 85.7627 159.988 86.1741 160.572 86.4172C161.156 86.6603 161.799 86.7242 162.42 86.6008C163.04 86.4774 163.61 86.1722 164.057 85.7239C164.505 85.2756 164.809 84.7044 164.932 84.0825C165.055 83.4607 164.992 82.8162 164.749 82.2307C164.506 81.6452 164.096 81.145 163.57 80.7934C163.043 80.4419 162.425 80.2548 161.792 80.2559C160.946 80.2573 160.136 80.5947 159.538 81.194C158.94 81.7934 158.603 82.6059 158.602 83.4535Z" fill="white"/>
<path d="M184.79 66.6521V74.9682H182.857L179.193 70.5373V74.9682H176.896V66.6521H178.828L182.492 71.083V66.6521H184.79Z" fill="#263238"/>
<path d="M186.025 70.8101C186.025 68.3164 187.98 66.4829 190.637 66.4829C193.294 66.4829 195.248 68.3164 195.248 70.8101C195.248 73.3039 193.294 75.1373 190.637 75.1373C187.98 75.1373 186.025 73.3039 186.025 70.8101ZM192.88 70.8101C192.854 70.372 192.702 69.9509 192.44 69.5988C192.179 69.2467 191.82 68.979 191.409 68.8288C190.997 68.6785 190.551 68.6522 190.125 68.7532C189.698 68.8542 189.311 69.078 189.01 69.397C188.71 69.716 188.508 70.1163 188.432 70.5484C188.356 70.9806 188.407 71.4258 188.58 71.829C188.753 72.2322 189.04 72.5759 189.405 72.8176C189.771 73.0593 190.199 73.1885 190.637 73.1893C190.944 73.193 191.248 73.133 191.53 73.013C191.813 72.8931 192.068 72.7157 192.278 72.4922C192.489 72.2687 192.651 72.0038 192.755 71.7143C192.858 71.4248 192.901 71.1169 192.88 70.8101Z" fill="#263238"/>
<path d="M156.915 43.3298C165.623 39.8956 169.899 30.0232 166.466 21.2791C163.033 12.5351 153.191 8.23062 144.483 11.6648C135.776 15.0991 131.5 24.9715 134.933 33.7155C138.366 42.4596 148.208 46.764 156.915 43.3298Z" fill="white"/>
<path d="M143.94 43.0789L144.196 43.1826L144.947 43.4773L145.492 43.6955C145.699 43.761 145.933 43.8156 146.183 43.8865L146.995 44.1048C147.305 44.182 147.619 44.2421 147.936 44.2849C149.555 44.57 151.207 44.605 152.836 44.3885C155.004 44.1284 157.1 43.4502 159.01 42.3914L159.811 41.9384C160.067 41.7693 160.323 41.5783 160.578 41.3928C160.834 41.2072 161.123 41.0381 161.352 40.8471L162.097 40.2032L162.783 39.5538L162.822 39.5102C163.056 39.2701 163.29 39.0191 163.524 38.7735C163.758 38.528 163.954 38.2278 164.172 37.9605C164.397 37.6734 164.604 37.3727 164.792 37.0601C165.197 36.4595 165.561 35.8323 165.881 35.183C166.039 34.8501 166.224 34.5227 166.366 34.1789L166.91 32.7274L166.97 32.5692L167.117 32.0235C167.21 31.647 167.324 31.2759 167.406 30.8939C167.556 30.1154 167.656 29.328 167.705 28.5366C167.76 27.7263 167.76 26.9132 167.705 26.1029C167.673 25.6936 167.602 25.2844 167.547 24.8751C167.515 24.6678 167.504 24.4604 167.455 24.2531L167.308 23.6419C167.173 22.9785 166.991 22.3257 166.763 21.6884C166.638 21.3719 166.507 21.0554 166.382 20.7334L165.881 19.7294L165.718 19.4456L165.397 18.9L165.07 18.3543L164.694 17.8086L164.313 17.2629L164.123 16.9901L163.905 16.7336L162.185 14.9111L162.059 14.791C159.323 12.3174 155.855 10.8076 152.183 10.4911H152.025H149.504H149.172L148.84 10.5402L148.187 10.6275L147.534 10.7203L146.897 10.8731L146.265 11.0259L145.949 11.1022L144.909 11.4569L143.951 11.8335C143.327 12.0965 142.722 12.401 142.138 12.7447L141.594 13.0612C141.414 13.1649 141.251 13.2959 141.082 13.4105C140.744 13.656 140.401 13.8852 140.075 14.1362C138.831 15.1513 137.724 16.3233 136.781 17.6231C136.558 17.9396 136.362 18.2779 136.155 18.6053L135.85 19.091C135.821 19.1345 135.796 19.1801 135.774 19.2274C135.545 19.6967 135.316 20.155 135.088 20.6134C134.935 20.9572 134.821 21.3119 134.69 21.6556C134.433 22.3351 134.224 23.0316 134.064 23.7401C133.977 24.0831 133.912 24.4312 133.868 24.7824C133.819 25.1261 133.748 25.4699 133.721 25.8137C133.694 26.1575 133.677 26.5012 133.661 26.8396V27.8327C133.661 28.1656 133.688 28.493 133.699 28.8204C133.71 29.1478 133.781 29.4588 133.814 29.7753C133.846 30.0918 133.895 30.3974 133.95 30.703L134.162 31.5979C134.683 33.721 135.607 35.7238 136.884 37.4966C137.841 38.8354 138.996 40.0204 140.309 41.0108C140.554 41.2074 140.81 41.3896 141.076 41.5565L141.79 42.0039C142.013 42.1349 142.214 42.2713 142.405 42.375L142.949 42.6369L143.679 42.9861L143.929 43.1007L143.69 42.9698L142.971 42.5987L142.427 42.3313C142.236 42.2222 142.035 42.0858 141.817 41.9494L141.109 41.5019C140.848 41.3329 140.595 41.1508 140.352 40.9562C139.07 39.9401 137.948 38.735 137.026 37.382C135.749 35.6231 134.825 33.6329 134.304 31.5215C134.233 31.2268 134.162 30.9321 134.097 30.632C134.031 30.3319 134.01 30.0209 133.966 29.7098C133.913 29.3955 133.877 29.0785 133.857 28.7603C133.857 28.4439 133.83 28.1164 133.819 27.789C133.808 27.4616 133.819 27.1015 133.819 26.845V26.7959L133.884 25.7864C133.912 25.4426 133.982 25.1098 134.031 24.766C134.078 24.4189 134.143 24.0746 134.227 23.7347C134.396 23.0277 134.612 22.3331 134.875 21.6556C135.006 21.3173 135.12 20.9626 135.273 20.6298C135.496 20.1714 135.725 19.713 135.953 19.2492C135.953 19.2055 136.002 19.1619 136.029 19.1182C136.127 18.96 136.231 18.8017 136.329 18.638C136.536 18.3161 136.732 17.9832 136.955 17.6667C137.414 17.0343 137.914 16.4327 138.452 15.866C139.002 15.2801 139.591 14.7331 140.216 14.229C140.537 13.978 140.88 13.7542 141.213 13.5141C141.381 13.3995 141.539 13.2631 141.719 13.1649L142.263 12.8539C142.99 12.4413 143.743 12.0768 144.517 11.7625L145.726 11.3533L146.031 11.2496L146.341 11.1732L146.967 11.0259L147.599 10.8731L148.247 10.7858L148.889 10.693L149.216 10.6493H149.543H152.047H152.194C155.822 10.9615 159.248 12.4543 161.95 14.9002L162.07 15.0148L163.774 16.8209L163.992 17.0719L164.177 17.3393L164.558 17.885L164.929 18.4307L165.25 18.9764L165.571 19.522L165.729 19.8003L165.86 20.095C166.039 20.4824 166.213 20.8699 166.404 21.2573C166.699 22.0427 166.943 22.8466 167.134 23.6637L167.275 24.2694C167.324 24.4713 167.335 24.6787 167.368 24.8806C167.422 25.2898 167.493 25.6936 167.526 26.0974C167.583 26.8986 167.583 27.7028 167.526 28.5039C167.48 29.286 167.383 30.0643 167.237 30.8339C167.155 31.2159 167.046 31.5815 166.954 31.9253L166.807 32.471C166.796 32.5192 166.781 32.5666 166.763 32.6128L166.219 34.0534C166.077 34.3972 165.898 34.7191 165.745 35.0465C165.423 35.6918 165.06 36.3153 164.656 36.9128C164.467 37.207 164.259 37.4895 164.036 37.7586C163.823 38.0314 163.622 38.3042 163.399 38.5662L162.702 39.3028L162.359 39.663L162.326 39.6957L161.237 40.6288C160.998 40.8416 160.72 41.0053 160.47 41.1745C160.219 41.3437 159.963 41.5456 159.707 41.7202L158.918 42.1731C157.039 43.2634 154.966 43.977 152.815 44.2739C151.196 44.4993 149.553 44.4753 147.942 44.203C147.627 44.1659 147.314 44.1112 147.005 44.0393L146.194 43.8265C145.944 43.761 145.71 43.7119 145.503 43.6464L144.958 43.4391L144.196 43.1662L143.94 43.0789Z" fill="#263238"/>
<path d="M145.894 24.6349H148.458C148.458 24.3432 148.517 24.0544 148.63 23.7856C148.743 23.5167 148.909 23.2734 149.117 23.0699C149.326 22.8664 149.573 22.7069 149.844 22.6008C150.115 22.4947 150.405 22.4442 150.696 22.4522C151.128 22.4355 151.554 22.5542 151.915 22.7919C152.276 23.0297 152.554 23.3745 152.71 23.7782C152.846 24.1157 152.899 24.4805 152.867 24.8427C152.835 25.2049 152.718 25.5544 152.525 25.8627C152.09 26.583 151.137 27.2378 149.406 26.9541V32.711H151.943V29.295C152.985 28.9891 153.897 28.3487 154.541 27.4722C155.184 26.5958 155.522 25.5318 155.503 24.444C155.503 20.6842 152.139 19.8112 150.696 19.8112C149.596 19.833 145.845 20.0949 145.894 24.6349Z" fill="#263238"/>
<path d="M151.976 33.906H149.4V36.3179H151.976V33.906Z" fill="#263238"/>
<path d="M57.0466 177.85C57.0466 177.85 52.3971 173.485 50.6059 172.311C48.8146 171.138 44.8075 169.55 43.3103 169.403C41.8131 169.256 34.8061 171.291 34.8061 171.291C34.8061 171.291 24.4616 170.374 22.7249 171.586C20.9881 172.797 21.1296 174.052 21.8592 174.974C22.5888 175.897 25.3818 175.602 28.4742 175.651C31.5666 175.7 32.3887 175.989 32.3887 175.989L27.8971 180.786L39.57 184.033L46.6478 183.765L49.2066 186.996L57.0466 177.85Z" fill="#FFBF9D"/>
<path d="M21.6025 167.018L21.8857 177.343L22.3811 178.625L27.4662 184.84L39.8687 184.016L29.987 180.158L26.4753 177.485L25.1142 173.07C25.1142 173.07 25.528 166.26 21.6025 167.018Z" fill="#FFBF9D"/>
<path d="M22.4631 178.865H19.4251C19.4251 178.865 15.4834 172.366 11.8791 174.576L12.7067 175.858C12.7067 175.858 11.0734 175.122 10.0498 176.491L19.9914 185.222H20.4487L31.0381 184.54L22.4631 178.865Z" fill="#FFBF9D"/>
<path d="M24.2648 180.84C23.9807 180.868 23.6953 180.879 23.41 180.873C22.6912 180.88 21.9801 181.023 21.3139 181.293L21.2159 181.342L21.1506 181.25C20.8402 180.813 20.4646 180.349 20.0617 179.864C19.2613 178.865 18.5318 177.965 17.922 177.212C17.61 176.859 17.3277 176.481 17.0781 176.082C17.4501 176.378 17.7879 176.715 18.0853 177.086C18.6679 177.736 19.4573 178.647 20.2958 179.689C20.6878 180.18 21.058 180.644 21.3847 181.108L21.2159 181.064C21.9175 180.784 22.6731 180.667 23.4263 180.72C23.711 180.705 23.9958 180.746 24.2648 180.84Z" fill="#FF9A6C"/>
<path d="M45.7494 174.833C44.5498 175.241 43.3816 175.737 42.2541 176.317C41.1793 176.99 40.1565 177.743 39.1943 178.57C39.3938 178.25 39.6418 177.963 39.9293 177.719C40.5837 177.084 41.3154 176.534 42.1071 176.082C42.9008 175.63 43.7476 175.278 44.6279 175.034C44.9882 174.906 45.3671 174.838 45.7494 174.833Z" fill="#FF9A6C"/>
<path d="M35.8402 172.159C35.4114 172.774 34.9363 173.356 34.4192 173.9C33.9747 174.507 33.4832 175.078 32.9492 175.607C33.2551 174.911 33.6787 174.272 34.2014 173.719C34.6544 173.109 35.2087 172.581 35.8402 172.159Z" fill="#FF9A6C"/>
<path d="M25.4847 182.281C25.3997 182.21 25.3213 182.132 25.2506 182.046L24.6081 181.332L23.6118 180.186L22.9911 179.471C22.7461 179.207 22.5205 178.927 22.316 178.631C21.8564 177.928 21.6088 177.108 21.6028 176.268C21.6028 175.389 21.5647 174.451 21.5483 173.463C21.5157 171.482 21.4776 169.305 21.4395 167.019V166.893H21.5538L21.8859 166.849C22.2518 166.806 22.6227 166.847 22.97 166.97C23.3174 167.093 23.6319 167.295 23.8895 167.559C24.3507 168.075 24.6861 168.691 24.8695 169.359C25.1888 170.572 25.3137 171.829 25.2397 173.081V173.037C25.746 174.707 26.1925 176.202 26.5736 177.457L26.5355 177.408L29.0889 179.411L29.7695 179.956C29.8511 180.015 29.9259 180.083 29.9927 180.158C29.9927 180.158 29.9001 180.115 29.7368 180L29.029 179.493L26.4211 177.561V177.528C26.0291 176.279 25.5609 174.8 25.0328 173.125V173.081C25.0935 171.859 24.9631 170.634 24.6462 169.452C24.4852 168.824 24.1794 168.243 23.7533 167.755C23.5242 167.521 23.2444 167.344 22.9356 167.236C22.6269 167.128 22.2975 167.093 21.973 167.133L21.6736 167.171L21.7879 167.029C21.8206 169.316 21.8478 171.493 21.8696 173.474C21.8913 175.455 21.6463 177.294 22.5392 178.543C22.7172 178.827 22.9137 179.098 23.1272 179.356L23.7316 180.087C24.1018 180.535 24.423 180.928 24.6898 181.261L25.2887 182.008C25.3649 182.091 25.4307 182.182 25.4847 182.281Z" fill="#FF9A6C"/>
<path d="M20.4702 185.228C20.277 185.246 20.0836 185.194 19.9258 185.08C19.4988 184.821 19.1071 184.508 18.7607 184.147C17.6277 182.97 16.5866 181.708 15.6465 180.371C14.5249 178.81 13.583 177.381 12.8916 176.328C12.5595 175.782 12.2981 175.367 12.1239 175.062C12.0181 174.913 11.9355 174.749 11.8789 174.576C12.0082 174.704 12.1216 174.847 12.2165 175.002L13.0604 176.213C13.7736 177.244 14.7481 178.663 15.8697 180.202C16.8042 181.533 17.8149 182.808 18.8968 184.022C19.2232 184.386 19.5883 184.714 19.9857 184.998C20.1401 185.089 20.3022 185.166 20.4702 185.228Z" fill="#FF9A6C"/>
<path d="M38.5623 178.565L33.0907 178.194L31.4573 173.703L31.1579 170.68C31.094 169.964 30.7652 169.299 30.2362 168.814C29.7072 168.329 29.0163 168.061 28.2996 168.061H28.2451L28.55 175.466L29.677 180.066L34.1251 182.696H39.5696L38.5623 178.565Z" fill="#FFBF9D"/>
<path d="M38.5623 178.565L33.0907 178.194L31.4573 173.703L31.1579 170.68C31.094 169.964 30.7652 169.299 30.2362 168.814C29.7072 168.329 29.0163 168.061 28.2996 168.061H28.2451L28.55 175.466L29.677 180.066L34.1251 182.696" fill="#FFBF9D"/>
<path d="M34.1256 182.696C34.014 182.653 33.9065 182.6 33.8044 182.537L32.9115 182.041L29.6448 180.153H29.6067V180.115C29.2746 178.794 28.8881 177.233 28.4579 175.52V175.493C28.3599 173.266 28.2511 170.751 28.1367 168.088V167.946H28.2783C28.3273 167.946 28.3872 167.946 28.4416 167.946C29.0997 167.969 29.7319 168.209 30.2406 168.628C30.7492 169.047 31.1062 169.623 31.2564 170.265C31.3206 170.562 31.3625 170.863 31.3816 171.166L31.4633 172.039C31.5232 172.584 31.5722 173.174 31.6266 173.714V173.681C32.2255 175.356 32.7645 176.873 33.2599 178.188L33.1674 178.117L37.1691 178.434L38.2579 178.538C38.3846 178.543 38.5105 178.562 38.6336 178.592C38.5069 178.605 38.3792 178.605 38.2525 178.592L37.1636 178.543L33.1619 178.319H33.0367V178.259C32.5522 176.95 31.9968 175.438 31.4034 173.774V173.741C31.3489 173.195 31.2891 172.65 31.2292 172.066C31.2019 171.777 31.1693 171.487 31.1421 171.193C31.1223 170.903 31.0823 170.615 31.0223 170.331C30.8854 169.748 30.5612 169.227 30.0999 168.848C29.6385 168.468 29.0654 168.251 28.4688 168.23H28.2456L28.3817 168.082C28.4852 170.74 28.5886 173.261 28.6757 175.487C29.0895 177.206 29.4597 178.761 29.7646 180.093L29.7156 180.027L32.9496 181.992L33.8207 182.537C33.9288 182.577 34.0313 182.63 34.1256 182.696Z" fill="#FF9A6C"/>
<path d="M155.765 91.1857C151.077 73.2712 146.749 52.4427 120.61 54.298C120.61 54.298 104.505 57.4029 96.8613 69.315C92.3588 76.3215 88.4605 106.53 87.6874 130.387C87.6548 131.358 88.0576 138.13 88.0304 139.08L157.208 144.853H169.692C169.692 144.853 168.913 132.199 165.156 119.921C161.481 107.987 157.425 97.5047 155.765 91.1857Z" fill="#263238"/>
<path d="M117.137 61.1244L118.77 59.5583L136.438 66.6958C137.671 66.7648 138.833 67.2945 139.696 68.1804C140.559 69.0663 141.059 70.2441 141.098 71.4814L140.94 129.181C140.94 133.094 140.183 136.482 137.826 139.598L135.343 142.872C129.686 150.359 118.046 149.742 113.565 141.497C113.296 141.027 113.087 140.525 112.945 140.002C112.832 139.578 112.743 139.148 112.678 138.714C112.134 134.071 112.134 130.043 112.134 130.043C111.818 124.947 111.714 122.857 111.714 122.906C111.714 122.955 100.891 121.656 97.9671 107.736C96.5134 100.812 96.7857 91.284 97.194 81.9093C97.7493 68.9494 106.733 61.1081 117.137 61.1244Z" fill="#FFBF9D"/>
<path d="M121.683 91.1803C121.702 91.6493 121.904 92.092 122.245 92.4141C122.586 92.7362 123.038 92.9122 123.507 92.9047C123.736 92.912 123.964 92.8731 124.178 92.7903C124.392 92.7075 124.588 92.5826 124.753 92.4228C124.918 92.2631 125.049 92.0717 125.139 91.8602C125.229 91.6486 125.275 91.4212 125.276 91.1912C125.256 90.7227 125.055 90.2803 124.716 89.9575C124.377 89.6346 123.925 89.4568 123.458 89.4614C123.227 89.4541 122.998 89.4932 122.784 89.5762C122.569 89.6592 122.373 89.7846 122.208 89.9449C122.042 90.1052 121.91 90.2971 121.82 90.5093C121.73 90.7215 121.683 90.9497 121.683 91.1803Z" fill="#263238"/>
<path d="M103.237 91.6605C103.254 92.1299 103.454 92.574 103.794 92.8974C104.134 93.2208 104.587 93.3977 105.056 93.3903C105.285 93.3968 105.513 93.3574 105.727 93.2745C105.941 93.1915 106.137 93.0666 106.302 92.907C106.467 92.7475 106.599 92.5565 106.69 92.3453C106.781 92.134 106.829 91.9068 106.831 91.6768C106.812 91.2069 106.611 90.7628 106.27 90.4396C105.929 90.1163 105.476 89.9395 105.007 89.947C104.777 89.9397 104.549 89.9786 104.335 90.0614C104.121 90.1442 103.926 90.2691 103.761 90.4289C103.596 90.5886 103.464 90.78 103.374 90.9915C103.285 91.2031 103.238 91.4305 103.237 91.6605Z" fill="#263238"/>
<path d="M99.0337 85.6308C99.2678 85.8545 100.574 84.7741 102.507 84.6868C104.44 84.5995 105.905 85.4889 106.106 85.2325C106.204 85.1233 105.954 84.6868 105.317 84.2884C104.449 83.7513 103.438 83.4941 102.42 83.5518C101.415 83.5967 100.452 83.964 99.6707 84.5995C99.0991 85.096 98.9139 85.5326 99.0337 85.6308Z" fill="#263238"/>
<path d="M118.199 84.9542C118.455 85.1507 119.653 83.9447 121.564 83.6555C123.475 83.3663 125.026 84.1084 125.195 83.8411C125.282 83.721 124.993 83.3336 124.313 82.9843C123.397 82.5395 122.367 82.3871 121.362 82.5478C120.366 82.6987 119.443 83.163 118.727 83.8738C118.215 84.4086 118.079 84.8833 118.199 84.9542Z" fill="#263238"/>
<path d="M111.894 99.9275C111.894 99.8184 110.685 99.671 108.725 99.5182C108.229 99.491 107.756 99.42 107.636 99.0872C107.567 98.5778 107.656 98.0594 107.892 97.6029C108.295 96.3806 108.719 95.1037 109.16 93.7832C110.919 88.3264 112.166 83.841 111.948 83.77C111.73 83.6991 110.124 88.0754 108.366 93.5376C107.941 94.8854 107.538 96.1678 107.157 97.3956C106.999 97.9685 106.71 98.6233 106.999 99.3491C107.078 99.5198 107.196 99.6701 107.342 99.7883C107.488 99.9065 107.66 99.9896 107.843 100.031C108.12 100.091 108.403 100.117 108.687 100.108C110.674 100.091 111.888 100.042 111.894 99.9275Z" fill="#263238"/>
<path d="M111.703 122.917C118.305 122.689 124.714 120.626 130.214 116.958C130.214 116.958 125.989 126.911 111.91 126.305L111.703 122.917Z" fill="#FF9A6C"/>
<path d="M117.931 103.867C117.649 103.542 117.303 103.278 116.916 103.09C116.528 102.902 116.107 102.796 115.677 102.776C114.463 102.705 113.608 102.858 112.955 103.818C112.827 104.055 112.75 104.316 112.726 104.584C112.703 104.853 112.734 105.123 112.819 105.379C112.96 105.603 112.857 105.608 113.075 105.766C113.864 106.321 114.756 106.712 115.699 106.918C116.635 107.13 117.713 106.918 118.198 106.148C118.389 105.786 118.466 105.373 118.418 104.966C118.371 104.559 118.201 104.176 117.931 103.867Z" fill="#FF9A6C"/>
<path d="M117.735 76.0759C117.986 76.567 119.646 76.0759 121.694 76.0214C123.741 75.9668 125.445 76.3488 125.641 75.8413C125.728 75.6012 125.369 75.1538 124.639 74.7499C123.698 74.2588 122.645 74.02 121.585 74.0569C120.536 74.0784 119.513 74.3777 118.617 74.9246C117.931 75.372 117.627 75.8358 117.735 76.0759Z" fill="#263238"/>
<path d="M99.3113 82.1275C99.6707 82.5477 100.983 82.0238 102.578 81.9256C104.173 81.8274 105.545 82.0675 105.845 81.5927C105.97 81.3635 105.736 80.9324 105.121 80.545C104.304 80.0765 103.362 79.8725 102.426 79.9611C101.486 80.0224 100.589 80.3774 99.8612 80.9761C99.3113 81.4563 99.148 81.9201 99.3113 82.1275Z" fill="#263238"/>
<path d="M140.744 96.1078C140.744 96.1078 133.307 97.9086 122.778 75.1266C119.184 67.3725 112.21 59.5584 112.21 59.5584L118.743 58.6144C118.743 58.6144 138.262 64.1257 138.588 64.3713C138.915 64.6168 143.516 74.4881 143.516 74.4881L140.744 96.1078Z" fill="#263238"/>
<path d="M138.304 95.1965C138.255 94.1488 139.339 91.6223 140.357 91.4095C143.079 90.8638 148.055 90.8147 148.453 97.8157C148.997 107.381 139.301 105.952 139.268 105.679C139.235 105.406 138.479 98.8034 138.304 95.1965Z" fill="#FFBF9D"/>
<path d="M141.979 101.87C142.018 101.837 142.148 101.979 142.437 102.094C142.843 102.24 143.29 102.222 143.684 102.045C144.669 101.619 145.426 99.9657 145.377 98.225C145.352 97.403 145.148 96.5964 144.778 95.8622C144.671 95.5688 144.495 95.3057 144.265 95.0956C144.034 94.8856 143.756 94.7348 143.455 94.6563C143.261 94.6161 143.058 94.6454 142.883 94.7391C142.708 94.8328 142.571 94.985 142.497 95.1692C142.382 95.4421 142.459 95.6331 142.404 95.6494C142.35 95.6658 142.192 95.5021 142.246 95.1037C142.286 94.863 142.407 94.6432 142.589 94.4817C142.713 94.375 142.856 94.2939 143.012 94.2434C143.167 94.1928 143.33 94.1736 143.493 94.187C143.89 94.2412 144.266 94.3967 144.585 94.6384C144.904 94.8802 145.156 95.2001 145.317 95.5676C145.768 96.3743 146.016 97.2788 146.041 98.2032C146.09 100.135 145.208 101.996 143.863 102.47C143.611 102.56 143.343 102.591 143.077 102.563C142.811 102.535 142.555 102.447 142.328 102.307C142.007 102.121 141.925 101.908 141.979 101.87Z" fill="#FF9A6C"/>
<path d="M119.162 104.255C119.134 104.5 117.501 104.462 115.568 104.839C113.635 105.215 112.122 105.821 112.002 105.608C111.882 105.395 113.314 104.391 115.41 104.004C117.506 103.616 119.205 104.053 119.162 104.255Z" fill="#263238"/>
<path d="M193.751 178.385C193.751 178.385 201.743 171.526 204.063 171.34C206.382 171.155 212.469 172.295 212.469 172.295C212.469 172.295 216.318 172.328 218.229 172.088C220.224 171.77 222.264 171.87 224.218 172.382C224.795 172.557 225.519 173.992 223.821 174.974C223.102 175.389 216.111 175.864 216.111 175.864L233.599 180.868L231.329 182.745C231.022 183 230.638 183.144 230.24 183.154L205.081 184.049L203.927 186.87L193.751 178.385Z" fill="#FFBF9D"/>
<path d="M212.839 178.39H221.006C221.006 178.39 223.869 174.571 224.904 172.994C225.813 171.602 226.902 171.193 227.855 171.52C228.103 171.611 228.31 171.79 228.437 172.022C228.528 172.19 228.576 172.377 228.576 172.568C228.576 172.759 228.528 172.946 228.437 173.114L224.844 179.831L226.728 179.198C226.728 179.198 230.495 175.498 231.23 174.642C231.965 173.785 234.644 170.183 237.018 172.808L233.751 176.475L237.018 174.15C237.018 174.15 239.642 171.891 241.041 174.582L231.241 182.854" fill="#FFBF9D"/>
<path d="M204.335 174.991C204.439 174.94 204.549 174.902 204.662 174.876C204.978 174.769 205.305 174.695 205.636 174.652C206.87 174.487 208.126 174.618 209.3 175.034C210.121 175.318 210.91 175.684 211.658 176.126C212.061 176.366 212.469 176.628 212.883 176.917L213.503 177.359C213.699 177.501 213.944 177.686 214.102 177.774C216.171 177.932 218.54 178.074 221.017 178.248L220.897 178.298C221.665 177.386 222.416 176.393 223.146 175.362C223.434 174.958 223.69 174.549 223.968 174.145C224.245 173.741 224.479 173.321 224.773 172.939C225.054 172.543 225.375 172.177 225.732 171.848C225.913 171.689 226.112 171.552 226.325 171.438C226.553 171.307 226.815 171.248 227.076 171.269H227.027C227.252 171.231 227.483 171.239 227.704 171.293C227.926 171.346 228.135 171.444 228.318 171.58C228.48 171.736 228.604 171.927 228.679 172.14C228.754 172.352 228.777 172.579 228.748 172.803V172.83C227.191 175.624 225.835 178.057 224.79 179.924C224.676 180.269 224.487 180.584 224.238 180.848C223.988 181.112 223.684 181.318 223.347 181.452C222.86 181.655 222.339 181.766 221.812 181.779C221.487 181.797 221.162 181.797 220.837 181.779C220.724 181.782 220.61 181.771 220.5 181.746H220.837C221.055 181.746 221.382 181.746 221.806 181.708C222.318 181.677 222.821 181.557 223.293 181.353C223.603 181.221 223.882 181.024 224.11 180.774C224.339 180.525 224.511 180.229 224.616 179.907L228.492 172.743V172.792C228.515 172.612 228.496 172.429 228.436 172.257C228.377 172.086 228.278 171.931 228.149 171.804C227.832 171.584 227.44 171.498 227.06 171.564H227.017C226.825 171.561 226.636 171.612 226.472 171.711C226.274 171.811 226.091 171.938 225.928 172.088C225.584 172.394 225.275 172.738 225.008 173.114C224.463 173.878 223.973 174.751 223.374 175.536C222.639 176.579 221.882 177.566 221.104 178.489L221.06 178.543H220.99C218.496 178.358 216.177 178.216 214.042 178.025C213.799 177.896 213.569 177.742 213.356 177.566L212.741 177.124C212.338 176.835 211.935 176.579 211.543 176.333C210.812 175.893 210.039 175.527 209.235 175.242C208.088 174.816 206.859 174.659 205.642 174.783C205.315 174.817 204.991 174.875 204.673 174.958C204.561 174.977 204.448 174.988 204.335 174.991Z" fill="#FF9A6C"/>
<path d="M237.035 172.808C236.951 172.972 236.845 173.122 236.719 173.256C236.496 173.534 236.174 173.932 235.766 174.412C234.96 175.384 233.828 176.71 232.559 178.161C231.291 179.613 230.202 180.988 229.26 181.85C228.898 182.199 228.505 182.514 228.084 182.789C227.935 182.899 227.764 182.977 227.583 183.018C227.723 182.9 227.87 182.793 228.024 182.696C228.41 182.391 228.774 182.059 229.113 181.703C230 180.819 231.035 179.416 232.331 177.981C233.626 176.546 234.759 175.22 235.597 174.281L236.61 173.19C236.734 173.045 236.877 172.916 237.035 172.808Z" fill="#FF9A6C"/>
<path d="M232.554 173.19C232.265 173.613 231.933 174.004 231.563 174.358C230.926 175.056 230.028 175.995 229.026 177.043C228.204 177.894 227.436 178.68 226.848 179.274C226.199 179.537 225.521 179.721 224.828 179.82C225.003 179.732 225.185 179.661 225.373 179.607L226.799 179.062L226.755 179.089C227.343 178.456 228.095 177.665 228.933 176.819C229.935 175.782 230.855 174.854 231.53 174.194C231.843 173.831 232.185 173.495 232.554 173.19Z" fill="#FF9A6C"/>
<path d="M166.654 137.667C166.654 137.667 178.392 140.7 179.541 156.689C180.199 165.802 175.359 195.066 175.359 195.066L192.694 177.223L208.146 187.994C208.146 187.994 187.114 213.734 182.279 217.625C177.445 221.515 169.692 227.725 167.187 227.218C164.683 226.71 164.672 215.098 164.672 215.098V150.981L166.654 137.667Z" fill="#FA913B"/>
<path d="M82.2649 139.625C82.2649 139.625 71.8224 143.069 72.2362 163.531C72.65 183.994 72.3288 190.864 72.3288 190.864L56.676 174.259L43.6855 188.633C43.6855 188.633 58.2331 210.296 68.4088 220.828C78.0019 230.742 86.5279 222.132 89.2991 215.158C91.5422 209.51 93.3498 188.032 93.3498 188.032L82.2649 139.625Z" fill="#FA913B"/>
<g opacity="0.3">
<path d="M167.563 174.5C168.51 168.497 168.76 161.998 166.033 156.492C159.342 173.07 159.641 192.109 162.037 209.674L167.339 224.871C170.682 214.689 167.508 203.841 167.579 193.222C167.623 187.17 166.621 180.486 167.563 174.5Z" fill="black"/>
</g>
<path d="M80.0928 152.645C80.0928 152.645 87.0726 199.705 88.4228 203.824C89.773 207.944 89.773 220.091 89.773 220.091C89.773 220.091 82.4502 233.766 81.9983 243.266L170.236 243.451L164.503 204.397C164.321 201.932 164.277 199.458 164.373 196.987C164.743 190.106 165.271 175.356 167.242 166.287C169.529 155.745 166.447 137.705 166.447 137.705L140.091 131.195C133.851 140.182 118.313 140.302 112.15 131.195L82.4012 139.626L80.0928 152.645Z" fill="#FA913B"/>
<path d="M166.234 202.531C166.298 202.378 166.386 202.236 166.496 202.111C166.681 201.855 166.958 201.483 167.307 201.02C168.213 199.837 169.226 198.741 170.334 197.746C171.462 196.774 172.719 195.964 174.069 195.339C174.613 195.11 175.016 194.935 175.316 194.837C175.469 194.771 175.63 194.725 175.795 194.701C175.855 194.815 173.122 195.694 170.519 197.975C169.429 198.959 168.406 200.016 167.459 201.14C167.085 201.632 166.675 202.097 166.234 202.531Z" fill="#263238"/>
<path d="M84.5243 201.532C84.4698 201.532 84.2684 200.577 83.5987 199.142C82.7356 197.268 81.4749 195.605 79.9046 194.27C78.3342 192.934 76.492 191.958 74.5065 191.41C72.982 190.984 71.9912 190.941 72.002 190.864C72.2316 190.836 72.4639 190.836 72.6935 190.864C73.3217 190.919 73.9445 191.025 74.5555 191.181C76.5944 191.684 78.4895 192.654 80.0925 194.013C81.6872 195.379 82.9498 197.093 83.7838 199.022C84.035 199.602 84.2407 200.2 84.399 200.812C84.4725 201.046 84.5146 201.288 84.5243 201.532Z" fill="#263238"/>
<path d="M85.0902 176.033C84.9447 175.983 84.8086 175.91 84.6874 175.815C84.4424 175.662 84.0939 175.422 83.6747 175.105C82.5903 174.282 81.576 173.369 80.6421 172.377C79.7139 171.386 78.8432 170.342 78.0342 169.25C77.673 168.815 77.3557 168.346 77.0869 167.848C77.4796 168.247 77.8435 168.674 78.1758 169.125C78.84 169.927 79.7547 171.029 80.8381 172.181C81.7654 173.161 82.7508 174.085 83.789 174.947C84.2426 175.285 84.677 175.647 85.0902 176.033Z" fill="#263238"/>
<path d="M146.684 201.505C146.684 201.505 146.684 201.543 146.613 201.614L146.384 201.915C146.166 202.171 145.878 202.575 145.453 203.044C144.274 204.394 143.001 205.658 141.642 206.826C139.617 208.567 137.46 210.147 135.19 211.551C132.419 213.259 129.556 214.813 126.615 216.206C123.49 217.695 120.474 219.021 117.741 220.255C115.008 221.488 112.563 222.617 110.543 223.638C108.523 224.658 106.912 225.531 105.812 226.164C105.268 226.47 104.843 226.71 104.554 226.896L104.222 227.081C104.146 227.119 104.108 227.141 104.103 227.136C104.133 227.105 104.167 227.079 104.206 227.059L104.522 226.846C104.805 226.666 105.213 226.394 105.758 226.066C106.847 225.406 108.436 224.495 110.451 223.458C112.465 222.421 114.91 221.275 117.637 220.015C120.365 218.754 123.376 217.439 126.49 215.949C129.423 214.559 132.282 213.016 135.054 211.327C137.316 209.947 139.47 208.398 141.5 206.695C142.871 205.546 144.164 204.309 145.371 202.989C145.807 202.537 146.112 202.144 146.335 201.898L146.591 201.62L146.684 201.505Z" fill="#263238"/>
<path d="M82.1992 242.529V242.415C82.1992 242.322 82.1992 242.213 82.1992 242.071C82.1992 241.754 82.2482 241.312 82.2809 240.739C82.4907 239.08 82.8238 237.438 83.2772 235.828C84.9502 230.187 87.2284 224.744 90.0719 219.594V219.665C89.718 214.547 89.1899 208.828 88.5801 202.815C87.415 191.454 86.1954 181.195 85.3134 173.763C84.867 170.063 84.5022 167.062 84.2246 164.972C84.1048 163.946 84.0122 163.139 83.9414 162.577L83.8761 161.955C83.8689 161.884 83.8689 161.812 83.8761 161.742C83.8983 161.809 83.9129 161.879 83.9197 161.949C83.9414 162.102 83.9741 162.309 84.0177 162.571C84.0939 163.117 84.2082 163.93 84.3498 164.956C84.6274 167.046 85.0194 170.041 85.5094 173.741C86.4513 181.162 87.6872 191.421 88.8687 202.782C89.4784 208.784 90.0011 214.525 90.3332 219.649V219.687V219.72C87.4877 224.849 85.1866 230.262 83.4678 235.872C82.9925 237.473 82.6287 239.104 82.3789 240.756C82.3299 241.301 82.2863 241.765 82.2591 242.076C82.2591 242.218 82.2591 242.333 82.221 242.42C82.219 242.457 82.2117 242.494 82.1992 242.529Z" fill="#263238"/>
<path d="M168.325 153.742C168.333 153.82 168.333 153.899 168.325 153.977C168.325 154.146 168.325 154.37 168.325 154.664C168.325 155.265 168.325 156.154 168.276 157.295C168.216 159.581 167.982 162.882 167.573 166.953C167.165 171.024 166.588 175.853 165.989 181.222C165.39 186.592 164.802 192.502 164.617 198.733C164.488 204.587 164.891 210.441 165.82 216.222C166.604 221.57 167.53 226.344 168.243 230.372C168.956 234.399 169.512 237.656 169.817 239.921C169.98 241.056 170.073 241.94 170.138 242.535C170.138 242.824 170.187 243.08 170.203 243.217C170.21 243.295 170.21 243.373 170.203 243.451C170.181 243.377 170.166 243.3 170.16 243.222C170.16 243.053 170.105 242.829 170.062 242.546C169.98 241.945 169.871 241.067 169.686 239.937C169.354 237.678 168.788 234.42 168.053 230.404C167.318 226.388 166.365 221.613 165.565 216.26C164.619 210.465 164.207 204.594 164.334 198.722C164.525 192.48 165.129 186.565 165.733 181.195C166.338 175.826 166.958 170.996 167.367 166.931C167.775 162.866 168.058 159.575 168.156 157.289C168.227 156.149 168.232 155.265 168.254 154.664C168.254 154.37 168.254 154.146 168.254 153.977C168.27 153.897 168.294 153.818 168.325 153.742Z" fill="#263238"/>
<g opacity="0.3">
<path d="M84.1328 163.826C82.6278 178.897 84.3713 194.115 89.2451 208.452L84.1328 163.826Z" fill="black"/>
</g>
<g opacity="0.3">
<path d="M138.713 215.966C132.027 222.121 125.319 227.381 117.093 230.311C123.294 230.857 129.55 228.462 134.341 224.484C139.132 220.506 142.546 216.298 144.74 210.482L138.713 215.966Z" fill="black"/>
</g>
<path d="M131.096 222.743C131.042 222.688 135.201 218.863 140.384 214.203C145.568 209.543 149.814 205.816 149.863 205.876C149.912 205.936 145.758 209.756 140.575 214.416C135.392 219.076 131.151 222.803 131.096 222.743Z" fill="#263238"/>
<path d="M145.884 107.261C145.884 107.938 145.684 108.6 145.308 109.163C144.933 109.726 144.399 110.164 143.775 110.423C143.151 110.682 142.465 110.749 141.802 110.617C141.14 110.484 140.532 110.158 140.055 109.679C139.577 109.2 139.253 108.59 139.122 107.925C138.99 107.261 139.059 106.573 139.318 105.948C139.577 105.323 140.016 104.789 140.578 104.414C141.14 104.039 141.8 103.839 142.476 103.84C142.924 103.84 143.367 103.929 143.781 104.101C144.195 104.273 144.571 104.525 144.888 104.842C145.204 105.16 145.455 105.537 145.626 105.952C145.797 106.368 145.885 106.812 145.884 107.261Z" fill="#455A64"/>
<path d="M166.197 152.192C165.191 143.825 164.186 135.458 163.18 127.091L141.593 120.543C141.174 135.473 138.566 152.236 134.82 166.691C142.806 169.282 151.246 170.163 159.593 169.277C159.955 165.239 160.318 161.201 160.681 157.163C161.219 160.208 161.763 163.251 162.315 166.293C164.58 165.021 165.914 162.473 166.365 159.925C166.817 157.376 166.507 154.801 166.197 152.192Z" fill="#263238"/>
<path d="M149.302 169.392C149.302 169.392 149.302 169.288 149.367 169.081C149.433 168.874 149.487 168.535 149.58 168.159C149.77 167.34 150.048 166.151 150.407 164.628C151.115 161.556 152.16 157.12 153.179 151.581C154.421 145.096 155.207 138.532 155.531 131.937C155.945 123.871 155.212 115.786 153.353 107.927C151.513 100.051 148.107 92.6275 143.34 86.1C142.796 85.3634 142.252 84.6158 141.642 83.9173C141.032 83.2189 140.493 82.5368 139.878 81.9092L138.979 80.9543L138.065 80.043C137.466 79.4319 136.845 78.8698 136.246 78.3023C133.824 76.0541 131.455 74.0788 129.337 72.2235C127.219 70.3682 125.33 68.6602 123.762 67.0614C123.365 66.663 123.005 66.2592 122.673 65.8882C122.341 65.5171 121.976 65.1406 121.672 64.7968C121.367 64.453 121.056 64.0874 120.773 63.7546L120.006 62.7723C119.505 62.1612 119.129 61.5719 118.775 61.0753C118.421 60.5787 118.16 60.1422 117.948 59.782L117.468 58.9744C117.36 58.7889 117.311 58.6907 117.311 58.6907C117.311 58.6907 117.376 58.778 117.496 58.9581L117.997 59.7548C118.214 60.104 118.487 60.5405 118.846 61.0262C119.205 61.5118 119.586 62.1175 120.093 62.7069L120.866 63.6782L121.77 64.7095C122.08 65.0751 122.417 65.4407 122.782 65.8008C123.147 66.161 123.501 66.5757 123.904 66.9631C125.472 68.5511 127.372 70.2372 129.495 72.087C131.619 73.9369 133.992 75.9068 136.431 78.1441C137.03 78.6897 137.662 79.2791 138.261 79.8848L139.181 80.796L140.085 81.7564C140.705 82.384 141.266 83.0879 141.86 83.77C142.453 84.4521 143.008 85.1942 143.58 85.9527C148.367 92.5066 151.784 99.9624 153.625 107.873C155.495 115.759 156.229 123.874 155.803 131.97C155.466 138.567 154.658 145.132 153.385 151.614C152.34 157.158 151.268 161.589 150.527 164.656C150.151 166.184 149.852 167.384 149.645 168.175C149.542 168.568 149.46 168.868 149.406 169.087C149.351 169.305 149.302 169.392 149.302 169.392Z" fill="#455A64"/>
</svg>
