<svg width="131" height="51" viewBox="0 0 131 51" fill="none" xmlns="http://www.w3.org/2000/svg">
<g clip-path="url(#clip0_966_2667)">
<path d="M31.893 0L32.181 0.071831L32.253 0.430986L29.3732 1.36479L26.9975 2.29859L25.5576 2.94507L24.1897 3.59155L22.5339 4.52535L21.238 5.31549L20.0861 6.10563L18.5743 7.25493L17.5663 8.1169L16.7024 8.90704L15.2626 10.3437L14.7586 10.9183L13.7507 12.1394L12.8148 13.4324L12.0229 14.6535L11.015 16.3775L10.0791 18.3169L9.35912 20.2563L8.85517 22.1239L8.56719 23.6324L8.35121 25.4282V28.8761L8.56719 30.6718L8.92716 32.5394L9.50311 34.4789L10.0791 35.9873L10.943 37.7831L11.6629 39.0761L12.5268 40.369L13.4627 41.5901L14.3986 42.6676L15.9105 44.1761L16.7024 44.8225L17.7823 45.6845L19.2942 46.6901L20.806 47.5521L22.1739 48.2704L23.8298 49.0606L25.9176 50.0662L27.1414 50.6408L27.7894 50.9282V51L26.4935 50.9282L24.1177 50.6408L21.8139 50.2099L19.7981 49.707L17.2064 48.8451L15.6225 48.1986L13.8227 47.3366L12.2388 46.4746L10.871 45.6127L9.64709 44.7507L8.63919 43.9606L7.63128 43.0986L6.69537 42.2366L6.04743 41.5901L5.54348 41.0155L4.53557 39.7944L3.74365 38.6451L2.95172 37.3521L2.0878 35.7L1.29588 33.7606L0.719932 31.8211L0.287973 29.8817L0.0719932 28.2296L0 27.2239V25.3563L0.143986 23.7042L0.431959 22.0521L0.935912 20.1845L1.65584 18.2451L2.51976 16.4493L3.67165 14.5099L4.53557 13.2887L5.25551 12.3549L6.04743 11.4211L6.69537 10.7028L8.42321 8.97887L9.21513 8.33239L10.367 7.39859L11.9509 6.32113L13.7507 5.24366L15.6945 4.23803L17.4944 3.44789L19.5822 2.65775L21.598 2.01127L23.9737 1.36479L26.3495 0.861972L29.4452 0.359155L31.893 0Z" fill="#D9242A"/>
<path d="M37.4801 0.604736L37.6957 0.820219V1.0357L34.2452 2.18495L32.3762 2.97505L30.5072 3.90881L29.2851 4.62709L27.5599 5.77633L26.4097 6.63827L25.4033 7.42837L24.6844 8.07482L24.1094 8.57761L23.0311 9.5832L22.456 10.1578L21.9528 10.7324L21.0902 11.6662L20.2994 12.6718L19.4368 13.7492L18.5742 14.9703L17.8553 16.0477L17.0646 17.3406L16.202 18.849L15.3393 20.501L14.4767 22.4404L14.4048 22.8713L14.3329 24.1642V25.2416L14.4767 27.3246L14.8361 29.4795L15.3393 31.4907L16.0582 33.5018L16.7051 34.9384L17.424 36.3749L18.4304 38.027L19.3649 39.3199L20.1557 40.3255L21.0183 41.3311L22.9592 43.2704L23.7499 43.9169L24.6126 44.6351L25.9065 45.5689L27.2723 46.4308L28.7819 47.2928L30.8666 48.2983L32.52 48.9448L34.8203 49.7349L36.258 50.3095L36.8331 50.525V50.5968H35.3235L32.8794 50.4532L30.7228 50.1659L28.2787 49.6631L26.3378 49.0885L24.5407 48.442L22.7435 47.6519L20.8026 46.6463L19.4368 45.7844L18.071 44.8506L17.1365 44.0605L16.3457 43.4141L14.7642 41.8339L14.1173 41.0437L13.1109 39.7508L12.2482 38.3861L11.4575 36.9496L10.523 35.082L9.87603 33.2145L9.44471 31.6343L9.08529 29.8386L8.86963 27.7556V25.6726L9.08529 23.5896L9.44471 21.8657L9.87603 20.3574L10.3792 18.9208L11.17 17.1969L11.9607 15.6886L12.8952 14.1802L13.8297 12.8873L14.4767 12.0972L15.3393 11.0916L15.9144 10.517L16.2738 10.086L16.8489 9.5832L17.3521 9.08041L18.1429 8.43396L19.4368 7.42837L20.9464 6.42278L22.0247 5.77633L23.3186 5.05805L24.9001 4.26795L27.1285 3.33419L29.357 2.54408L31.8011 1.82581L34.6765 1.17936L37.4801 0.604736Z" fill="#FEEE5C"/>
<path d="M102.449 17.5376H104.389L105.683 17.8241L106.689 18.1822L107.408 18.5403L107.695 18.4687L108.557 18.039L109.707 17.7525L111.001 17.6808L111.648 17.8241L111.935 18.1106L112.007 18.2538L112.079 19.543V31.9336L112.007 35.085L111.791 36.3742L111.36 37.5917L110.785 38.6661L110.21 39.4539L109.564 40.1701L108.773 40.8863L107.767 41.5309L106.545 42.1039L105.467 42.3904L104.605 42.5336H102.449L101.083 42.2472L99.9333 41.8174L98.999 41.3161L98.2084 40.7431L97.4898 40.0985L97.0585 39.6688V39.5255L97.6335 39.0242L98.4959 38.2363L99.2865 37.5917L99.7895 37.2336L100.436 37.3052L101.586 37.8782L102.449 38.2363L102.952 38.3796L103.958 38.4512L104.964 38.2363L105.683 37.8782L106.33 37.3769L106.689 37.0188L107.192 36.3742L107.551 35.5147L107.695 34.9417L107.767 34.2971V33.5809L107.695 32.7214H107.479L106.33 33.2944L105.467 33.5809L104.677 33.7242L103.67 33.7958L102.233 33.6525L100.868 33.2944L99.5739 32.7214L98.5678 32.0052L97.7054 31.2174L96.8429 30.0714L96.268 29.0687L95.8368 27.9228L95.6212 26.9917L95.5493 26.4187V24.843L95.7649 23.6255L96.1243 22.5511L96.6992 21.4052L97.346 20.4741L98.2084 19.543L99.2146 18.7552L100.221 18.1822L101.371 17.7525L102.449 17.5376ZM103.742 21.1903L102.736 21.3336L101.946 21.62L101.155 22.1214L100.652 22.5511L100.005 23.4822L99.6458 24.4133L99.5021 25.3444L99.5739 26.2755L99.8614 27.2066L100.364 28.066L101.227 28.9255L101.946 29.3552L103.095 29.7133H104.461L105.323 29.4985L106.258 28.9971L106.976 28.3525L107.479 27.7079L107.839 26.9917L108.054 26.2038V24.7714L107.767 23.8403L107.408 23.1241L106.833 22.4079L105.97 21.7633L105.108 21.4052L104.605 21.2619L103.742 21.1903Z" fill="#232122"/>
<path d="M120.636 17.5376H121.863L123.163 17.7534L124.678 18.2569L125.617 18.6885L125.761 18.4008L126.339 17.8972L127.06 17.6815H127.71L128.504 17.7534H129.876L130.02 18.6165V32.9306L129.731 33.4341L129.442 33.5779H126.483L125.978 33.2902L125.617 32.8586L125.256 33.0025L124.173 33.506L123.018 33.7937L122.441 33.8657H121.069L119.77 33.6499L118.471 33.2183L117.388 32.6429L116.594 32.0674L115.872 31.42L115.15 30.6288L114.501 29.6218L113.996 28.5429L113.635 27.2481L113.49 25.9534L113.562 24.5867L113.851 23.292L114.284 22.1411L114.862 21.1341L115.511 20.2709L116.089 19.6236L116.883 18.9762L117.893 18.3288L118.904 17.8972L120.059 17.6095L120.636 17.5376ZM121.069 21.5657L120.131 21.8534L119.409 22.213L118.687 22.8604L118.182 23.4358L117.749 24.299L117.532 25.0183L117.46 25.8815L117.605 26.8885L117.966 27.8236L118.471 28.5429L118.832 28.9744L119.77 29.6218L120.708 29.9815L120.997 30.0534H122.513L123.524 29.7657L124.39 29.2622L125.256 28.399L125.761 27.5358L126.05 26.5288V25.0902L125.761 24.1551L125.328 23.3639L124.678 22.6446L124.029 22.1411L123.09 21.7095L122.513 21.5657H121.069Z" fill="#232122"/>
<path d="M85.6439 17.5376H86.7219L87.8718 17.6802L89.0936 18.0367L90.2435 18.6071L91.034 19.1062L91.9683 19.9619L92.6151 20.6749L93.2619 21.6731L93.765 22.7426L94.1243 23.8834L94.3399 25.3808V26.3077L94.1962 26.9494L93.8369 27.3059L93.3338 27.4485H82.4817L82.9129 28.2328L83.5597 28.9459L84.2784 29.445L85.2127 29.8015L85.572 29.8728H86.6501L87.5844 29.5876L89.0217 28.7319L89.3092 28.6606H89.8123L90.3872 28.8745L91.3934 29.7302L92.5432 30.5858L92.3995 30.9423L91.1778 32.1544L90.2435 32.7961L89.0936 33.3665L87.9437 33.7231L87.1531 33.8657H85.069L83.6316 33.5805L82.4817 33.1526L81.5474 32.6535L80.685 32.0118L79.9663 31.3701L79.1758 30.3719L78.6009 29.3737L78.0978 28.0189L77.8822 27.0207L77.8103 26.4503V24.6678L78.0978 23.2417L78.529 22.1009L79.1039 21.1027L79.7507 20.3184L80.6132 19.4627L81.6193 18.7497L83.1285 18.0367L84.494 17.6802L85.6439 17.5376ZM86.0033 20.9601L84.9252 21.174L83.9191 21.6731L83.0567 22.4574L82.5536 23.2417L82.2661 23.8834L82.1224 24.5252V24.8817L85.1408 24.953H87.6562L90.5309 24.8817L90.4591 24.1686L90.0997 23.2417L89.5967 22.4574L89.0936 21.9583L88.2312 21.3879L87.1531 21.0314L86.6501 20.9601H86.0033Z" fill="#232122"/>
<path d="M52.7435 17.5376H54.6991L56.1477 17.8228L57.3066 18.2506L58.4655 18.8923L59.1898 19.4627L59.9141 20.1045L60.7108 21.1027L61.3626 22.2435L61.7972 23.3843L62.0145 24.3826L62.0869 24.953V26.379L61.8697 27.6624L61.5075 28.7319L60.7832 30.0867L60.1313 30.9423L59.0449 32.0118L58.0309 32.7248L56.6547 33.3665L55.7131 33.6518L54.337 33.8657H53.1057L51.7295 33.6518L50.6431 33.2952L49.4842 32.7248L48.5426 32.0831L47.8183 31.4414L47.3113 30.9423L46.5146 29.8728L45.9351 28.7319L45.573 27.6624L45.3557 26.5216V24.8104L45.6454 23.3843L46.08 22.2435L46.587 21.3166L47.2389 20.461L47.9632 19.6766L48.9772 18.8923L50.1361 18.2506L51.2949 17.8228L52.7435 17.5376ZM53.0332 21.6018L52.2365 21.8157L51.2225 22.3148L50.4258 23.0278L49.7739 24.026L49.4842 24.8817L49.4118 25.2382V26.379L49.7015 27.4485L50.1361 28.2328L50.7879 28.9459L51.4398 29.445L52.3814 29.8728L52.9608 30.0154H54.4818L55.4234 29.7302L56.2201 29.3024L57.0169 28.5893L57.6687 27.5911L57.9585 26.6642L58.0309 26.2364V25.3808L57.7412 24.2399L57.379 23.5269L56.7996 22.8139L56.0753 22.2435L55.2061 21.8157L54.4094 21.6018H53.0332Z" fill="#232122"/>
<path d="M36.701 17.3359H37.4169L38.6339 17.4797L39.7794 17.7671L41.068 18.3421L42.0702 18.9889L43.0009 19.7795L43.6452 20.4981L43.9316 21.0731L43.86 21.5043L43.4304 22.0074L42.4282 22.6542L40.9964 23.7322L40.3521 23.301L39.493 22.6542L38.4908 22.0792L37.7033 21.7199L37.1306 21.5762H36.1283L35.3408 21.8636L34.6965 22.3667L34.3386 22.726L33.8374 23.301L33.3363 24.3071L33.1931 24.8821V26.3194L33.4795 27.2537L33.9806 28.1161L34.3386 28.4755V28.6192L34.6249 28.763L35.2692 29.266L35.9135 29.5535L36.1999 29.6254H37.2737L38.1328 29.3379L39.2067 28.763L40.2089 27.9724L40.7816 27.4693L41.2112 27.6131L41.9986 28.1161L43.3588 29.1223L44.1463 29.6972L43.7168 30.4878L43.0725 31.2783L42.4282 31.9251L41.6407 32.5001L40.4953 33.1469L38.9919 33.65L38.2044 33.7937L37.059 33.8656L35.6988 33.7218L34.4817 33.4344L33.4079 33.0032L32.3341 32.4282L31.5466 31.7814L30.8307 31.0627L30.258 30.2722L29.6137 29.1223L29.1125 27.7568L28.8978 26.6788L28.8262 25.9601V25.1696L29.0409 23.6603L29.5421 22.1511L30.1864 21.0012L30.9023 20.0669L31.6182 19.3482L32.692 18.5577L33.8374 17.9827L35.126 17.5515L35.9135 17.4078L36.701 17.3359Z" fill="#232122"/>
<path d="M14.2582 22.7786H14.3302V25.1568L14.4744 27.2468L14.8347 29.4088L15.3393 31.4267L16.06 33.4446L16.7087 34.886L17.4294 36.3273L18.4384 37.9849L19.3754 39.2821L20.1682 40.291L21.0331 41.3L22.9791 43.2458L23.7719 43.8944L24.6368 44.6151L25.9341 45.552L27.3035 46.4168L28.817 47.2816L30.9072 48.2906L32.5649 48.9392L34.8712 49.7319L36.3127 50.3085L36.8893 50.5247V50.5967H35.3757L32.9252 50.4526L30.763 50.1643L28.3125 49.6599L26.3665 49.0833L24.5647 48.4347L22.7628 47.642L20.8169 46.633L19.4475 45.7682L18.0781 44.8313L17.1411 44.0386L16.3483 43.39L14.7627 41.8045L14.114 41.0117L13.105 39.7145L12.2401 38.3452L11.4473 36.9039L11.0869 36.1111V35.2463L11.4473 32.5798L11.9518 29.9853L12.5284 27.6792L13.1771 25.5892L13.8978 23.5713L14.2582 22.7786Z" fill="#F69240"/>
<path d="M65.2619 8.26489L67.5076 8.33668L68.1596 8.55205L68.5218 8.91099L68.6667 9.4135L68.7391 10.4185V32.5293L68.5218 33.1036L68.0872 33.3907L67.8698 33.4625H65.6241L64.8272 33.3189L64.3201 32.8882L64.1752 32.4575L64.1028 31.6678V9.12635L64.3926 8.55205L64.7548 8.33668L65.2619 8.26489Z" fill="#232122"/>
<path d="M72.6354 8.26489L76.1977 8.33705V33.4476L75.4707 33.5919L74.671 33.6641H72.9262L72.3446 33.4476L72.0537 33.0868L71.8356 32.4374L71.7629 31.7159V9.05862L71.981 8.62568L72.3446 8.33705L72.6354 8.26489Z" fill="#232122"/>
</g>
<defs>
<clipPath id="clip0_966_2667">
<rect width="130.02" height="51" fill="white"/>
</clipPath>
</defs>
</svg>
